<?xml version="1.0" encoding="UTF-8" standalone="no"?>
<!-- Created with Inkscape (http://www.inkscape.org/) -->

<svg
   width="220mm"
   height="297mm"
   viewBox="0 0 220 297"
   version="1.1"
   id="svg1"
   inkscape:version="1.3.2 (091e20e, 2023-11-25, custom)"
   sodipodi:docname="dibujo.svg"
   xmlns:inkscape="http://www.inkscape.org/namespaces/inkscape"
   xmlns:sodipodi="http://sodipodi.sourceforge.net/DTD/sodipodi-0.dtd"
   xmlns="http://www.w3.org/2000/svg"
   xmlns:svg="http://www.w3.org/2000/svg">
  <sodipodi:namedview
     id="namedview1"
     pagecolor="#ffffff"
     bordercolor="#000000"
     borderopacity="0.25"
     inkscape:showpageshadow="2"
     inkscape:pageopacity="0.0"
     inkscape:pagecheckerboard="0"
     inkscape:deskcolor="#d1d1d1"
     inkscape:document-units="mm"
     inkscape:zoom="2"
     inkscape:cx="353.75"
     inkscape:cy="541.75"
     inkscape:window-width="1920"
     inkscape:window-height="991"
     inkscape:window-x="2391"
     inkscape:window-y="-9"
     inkscape:window-maximized="1"
     inkscape:current-layer="layer1" />
  <defs
     id="defs1">
    <inkscape:path-effect
       effect="spiro"
       id="path-effect21"
       is_visible="true"
       lpeversion="1" />
    <inkscape:path-effect
       effect="spiro"
       id="path-effect20"
       is_visible="true"
       lpeversion="1" />
  </defs>
  <g
     inkscape:label="Capa 1"
     inkscape:groupmode="layer"
     id="layer1">
    <path
       style="fill:#000000;fill-rule:evenodd;stroke-width:0.236349"
       id="path1"
       sodipodi:type="arc"
       sodipodi:cx="105.53024"
       sodipodi:cy="152.46049"
       sodipodi:rx="28.814114"
       sodipodi:ry="27.530399"
       sodipodi:start="0"
       sodipodi:end="6.268035"
       sodipodi:open="true"
       sodipodi:arc-type="arc"
       d="m 134.34436,152.46049 a 28.814114,27.530399 0 0 1 -28.70498,27.53021 28.814114,27.530399 0 0 1 -28.922424,-27.32166 28.814114,27.530399 0 0 1 28.485884,-27.73717 28.814114,27.530399 0 0 1 29.13821,27.11155" />
    <path
       style="fill:#fbf3e8;fill-opacity:1;fill-rule:evenodd;stroke-width:0.207704"
       id="path1-1"
       sodipodi:type="arc"
       sodipodi:cx="105.59811"
       sodipodi:cy="152.49048"
       sodipodi:rx="25.374626"
       sodipodi:ry="24.143606"
       sodipodi:start="0"
       sodipodi:end="6.268035"
       sodipodi:open="true"
       sodipodi:arc-type="arc"
       d="m 130.97273,152.49048 a 25.374626,24.143606 0 0 1 -25.27852,24.14343 25.374626,24.143606 0 0 1 -25.470002,-23.96054 25.374626,24.143606 0 0 1 25.085582,-24.32494 25.374626,24.143606 0 0 1 25.66003,23.77628" />
    <text
       xml:space="preserve"
       style="font-style:italic;font-variant:normal;font-weight:bold;font-stretch:normal;font-size:6.86403px;font-family:'Gill Sans MT';-inkscape-font-specification:'Gill Sans MT, Bold Italic';font-variant-ligatures:normal;font-variant-caps:normal;font-variant-numeric:normal;font-variant-east-asian:normal;fill:#000000;stroke-width:0.572002"
       x="113.33772"
       y="127.58421"
       id="text2"
       transform="scale(0.76528637,1.3067004)"><tspan
         sodipodi:role="line"
         id="tspan2"
         style="font-style:italic;font-variant:normal;font-weight:bold;font-stretch:normal;font-size:6.86403px;font-family:'Gill Sans MT';-inkscape-font-specification:'Gill Sans MT, Bold Italic';font-variant-ligatures:normal;font-variant-caps:normal;font-variant-numeric:normal;font-variant-east-asian:normal;fill:#000000;stroke-width:0.572002"
         x="113.33772"
         y="127.58421">SNEAKERLAND</tspan></text>
    <path
       style="fill:#000000;stroke-width:0.264583"
       d="m 91.626295,155.07548 h 27.771685 v -1.14871 H 91.491153 v 1.14871 z"
       id="path2" />
    <path
       style="fill:#000000;stroke-width:0.288488"
       d="m 88.468789,152.63692 h 33.016691 v -1.14871 H 88.308123 v 1.14871 z"
       id="path2-9" />
    <path
       style="fill:#000000;stroke-width:0.265171"
       id="path11"
       d="m 91.496103,153.87526 c -0.03699,-0.001 -0.07409,0.002 -0.11107,0 -0.0061,-2.6e-4 0.01218,-1.4e-4 0.01827,-2.2e-4 -0.05181,-0.009 -0.104173,-0.0125 -0.156409,-0.0156 -0.05513,-0.002 -0.110304,-0.002 -0.165465,-0.003 -0.03785,-3e-5 -0.07571,5e-5 -0.113567,8e-5 -0.0419,3e-5 -0.0838,3e-5 -0.125706,4e-5 -0.04003,0 -0.08007,0 -0.120102,0 0.0094,1.7e-4 0.01885,2.9e-4 0.02829,5.9e-4 0.001,-4e-5 0.0035,9e-5 0.0026,-1.1e-4 -0.03321,-0.007 -0.06746,-0.01 -0.101091,-0.0137 -0.01489,-0.004 -0.10995,-0.002 -0.01636,-1e-4 0.0055,1.5e-4 -0.01388,-0.002 -0.03898,-0.006 -0.0059,-0.001 0.01189,0.002 0.01784,0.003 -0.0036,-0.001 -0.01417,-0.004 -0.01063,-0.003 0.0069,0.002 0.0137,0.005 0.02081,0.006 0.0044,5.8e-4 -0.0082,-0.003 -0.0124,-0.005 -0.01515,-0.005 -0.03025,-0.0113 -0.04555,-0.0162 -0.03598,-0.0116 -0.06011,-0.0152 -0.04034,-0.0121 0.0029,8.7e-4 0.01155,0.003 0.0088,0.002 -0.02211,-0.011 -0.05173,-0.0221 -0.08668,-0.0387 -0.05435,-0.0301 -0.114945,-0.0376 -0.17055,-0.0625 0.01006,0.004 0.01999,0.008 0.03016,0.0122 0.0026,8.8e-4 -0.0048,-0.003 -0.0071,-0.004 -0.01013,-0.005 -0.02023,-0.011 -0.03051,-0.0158 -0.141806,-0.0679 0.03524,0.0211 -0.03688,-0.0186 0.01251,0.004 0.0017,8.7e-4 -0.02388,-0.0148 -7.25e-4,-5.8e-4 -0.0029,-0.002 -0.0022,-0.002 0.0026,0.001 0.01008,0.006 0.0078,0.004 -7.26e-4,-5.9e-4 -0.04108,-0.0305 0.0027,0.002 0.0027,0.002 0.0054,0.004 0.0081,0.006 1.52e-4,-7e-5 4.84e-4,-8e-5 4.84e-4,-2.1e-4 -0.03104,-0.0325 -0.03078,-0.0334 -0.06892,-0.0717 0.07259,0.073 -0.06212,-0.0633 -0.07153,-0.0728 -0.0044,-0.004 0.0089,0.008 0.01332,0.0126 -0.01022,-0.01 -0.0204,-0.0206 -0.03066,-0.0308 -0.0092,-0.008 0.03557,0.0377 0.02697,0.0278 -0.01232,-0.014 -0.02453,-0.0283 -0.03708,-0.0421 -0.0067,-0.007 -0.01438,-0.0292 -0.02066,-0.0214 -0.0063,0.007 0.01361,0.0144 0.0204,0.0217 -0.05001,-0.0566 -0.0095,-0.0125 -0.08436,-0.0855 -0.0033,-0.003 0.01358,0.0119 0.01022,0.008 -0.01189,-0.0109 -0.0238,-0.0213 -0.03578,-0.0317 -0.0033,-0.003 -0.01313,-0.0115 -0.0099,-0.008 0.01141,0.0109 0.0231,0.0214 0.03467,0.032 -0.02571,-0.0279 -0.05268,-0.0539 -0.07932,-0.0804 -0.0022,-0.002 0.0045,0.003 0.0067,0.005 -0.05028,-0.0538 -0.09044,-0.0895 -0.122155,-0.11875 -0.02904,-0.026 0.0043,0.003 -0.05431,-0.0452 -0.0057,-0.004 0.02264,0.0186 0.01721,0.0135 -0.0092,-0.008 -0.0189,-0.0159 -0.02835,-0.0239 -0.0072,-0.006 -0.0085,-0.006 -0.0044,-0.004 -0.06004,-0.0504 -0.01213,-0.0118 -0.08922,-0.0679 -0.01049,-0.007 0.04133,0.0318 0.0316,0.0227 -0.009,-0.008 -0.01815,-0.0167 -0.02811,-0.0233 -0.0089,-0.005 0.01649,0.014 0.02474,0.021 -0.0086,-0.007 -0.01709,-0.0157 -0.02565,-0.0237 -0.04017,-0.037 0.07778,0.079 -7.25e-4,-0.002 -0.0065,-0.006 0.0125,0.0139 0.01893,0.0207 7.25e-4,8.8e-4 -0.0012,-0.002 -0.0017,-0.002 0.0053,0.007 0.01029,0.0148 0.0159,0.0216 0.0019,0.002 -0.0029,-0.005 -0.0046,-0.007 -0.01156,-0.0174 -0.02255,-0.0354 -0.03482,-0.0522 -0.04366,-0.0595 -0.02782,-0.0391 -0.06642,-0.0855 0.0019,0.002 0.0038,0.003 0.0055,0.005 0.0072,0.01 0.01965,0.0414 0.02107,0.0288 2.42e-4,-0.002 -0.04225,-0.0618 -0.04289,-0.0628 -0.0029,-0.004 0.0063,0.007 0.0091,0.0125 0.0078,0.0122 0.01494,0.025 0.02241,0.0375 -0.02665,-0.0498 -0.04141,-0.0764 -0.07642,-0.13555 7.25e-4,8.7e-4 0.0027,0.004 0.0022,0.003 -0.004,-0.006 -0.008,-0.0139 -0.0124,-0.0207 -0.0038,-0.005 0.0075,0.012 0.01081,0.0183 0.0063,0.0121 0.01123,0.0251 0.01791,0.0369 0.0035,0.006 -0.0054,-0.0133 -0.0083,-0.0199 -0.0068,-0.0152 -0.01376,-0.0302 -0.02063,-0.0453 -0.003,-0.01 0.01041,0.0236 0.0079,0.0176 -0.0723,-0.17654 -0.0033,5.8e-4 -0.01902,-0.0471 -0.02433,-0.0641 -0.02993,-0.083 -0.04878,-0.13468 0.127124,0.0324 -0.04609,-0.0553 -0.02771,-0.0663 0.0015,-8.8e-4 0.01649,0.0441 0.01294,0.0334 -0.02303,-0.0705 -0.01767,-0.053 -0.04987,-0.12817 -0.0017,-0.003 -0.0069,-0.015 -0.0051,-0.0113 0.01022,0.0229 0.01167,0.0239 0.02088,0.052 0.0037,0.0113 0.01269,0.0455 0.0097,0.0341 -0.02151,-0.0828 -0.01545,-0.0587 -0.04929,-0.14871 -0.05655,-0.14285 0.01269,0.0505 -0.008,-0.0185 -0.0037,-0.012 -0.0073,-0.024 -0.01103,-0.0359 -0.01141,-0.0475 -0.02756,-0.0939 -0.03975,-0.14127 -0.005,-0.0156 -0.01022,-0.0311 -0.01511,-0.0469 -1.76e-4,-5.8e-4 0.0085,0.0283 0.0082,0.0267 -0.0042,-0.0221 -0.0086,-0.0442 -0.01293,-0.0663 -10e-4,-0.004 -0.0017,-0.008 -0.0027,-0.0131 -0.0037,-0.0154 -0.0077,-0.0307 -0.01093,-0.0462 -0.0012,-0.005 0.0024,0.0121 0.0048,0.0175 10e-4,0.002 -1.71e-4,-0.005 -4.83e-4,-0.007 -4.84e-4,-0.006 -0.0012,-0.0132 -0.0019,-0.0198 -4.83e-4,-0.007 -0.0012,-0.0145 -0.0017,-0.0217 -0.0022,-0.0613 -0.0079,-0.12223 -0.01361,-0.18318 -0.0034,-0.0606 -0.0048,-0.12115 -0.0084,-0.18172 -0.0038,-0.0456 -0.0094,-0.0907 -0.01107,-0.13649 -0.0012,-0.0423 -0.001,-0.0846 -0.001,-0.12688 -4e-6,-0.0479 5.4e-5,-0.0958 8.5e-5,-0.14384 3e-5,-0.051 3e-5,-0.1019 3.1e-5,-0.15296 0.001,-0.0262 -0.0012,-0.0527 3e-6,-0.0789 2.42e-4,-0.007 -0.0012,0.015 1.69e-4,0.0222 10e-4,0.004 10e-4,-0.01 0.0015,-0.0143 0.0012,-0.0132 0.0022,-0.0265 0.0032,-0.0397 0.0056,-0.0803 0.0039,-0.0496 0.01665,-0.11901 0.0027,-0.017 0.0053,-0.0341 0.0079,-0.0511 -7.26e-4,0.004 -0.0031,0.0188 -0.0019,0.0143 0.0109,-0.0396 0.0015,-0.0122 0.01552,-0.064 0.01388,-0.0531 0.03095,-0.1083 0.04548,-0.16517 0.0125,-0.0378 0.03051,-0.085 0.04573,-0.1274 0.01228,-0.0359 0.0262,-0.0709 0.03954,-0.10626 0.0076,-0.0201 0.004,-0.0142 0.0093,-0.0224 0.01887,0.002 0.0069,-0.0289 0.0162,-0.0376 0.0022,-0.002 -0.0091,0.0194 -0.0055,0.0133 0.0019,-0.003 0.03408,-0.0621 0.0069,-0.0125 0.03284,-0.0558 0.03214,-0.0504 0.07415,-0.10963 0.03788,-0.0389 0.06817,-0.0883 0.108842,-0.12358 0.05355,-0.0575 0.108403,-0.11332 0.162514,-0.1702 0.04352,-0.0408 0.08608,-0.0827 0.13109,-0.12108 0.06348,-0.0516 0.121739,-0.11142 0.179824,-0.17118 0.04442,-0.0404 0.04468,-0.0537 0.09612,-0.0953 0.05374,-0.0464 0.104683,-0.0971 0.155494,-0.14798 0.02653,-0.021 0.05444,-0.0431 0.08137,-0.0645 0.0017,-0.001 0.0068,-0.004 0.0052,-0.003 -0.0026,0.002 -0.01197,0.009 -0.0088,0.006 0.02674,-0.013 0.05762,-0.0356 0.0823,-0.0511 0.0052,-0.003 0.01047,-0.006 0.01564,-0.01 0.01082,-0.006 0.02154,-0.0146 0.03237,-0.0216 0.0026,-0.002 0.01022,-0.006 0.0077,-0.004 -0.0072,0.004 -0.01477,0.008 -0.02173,0.0135 -0.0024,0.002 0.0053,-0.002 0.0079,-0.003 0.01225,-0.005 0.0244,-0.012 0.0366,-0.018 0.0525,-0.0216 -0.04782,0.0169 0.02222,-0.006 0.04734,-0.0162 0.02565,-0.0111 0.04751,-0.0159 0.05419,-0.0121 0.106771,-0.0321 0.15997,-0.0489 0.001,-1.5e-4 0.06269,-0.0203 0.04964,-0.0146 0.04106,-0.006 0.08103,-0.0185 0.121152,-0.031 0.0084,-0.002 0.01668,-0.005 0.02506,-0.008 0.0095,-0.003 0.0099,-0.003 0.0061,-10e-4 0.0038,-2.9e-4 -0.01515,0.004 -0.01134,0.003 0.04026,-0.008 0.08059,-0.0168 0.119803,-0.0314 0.02214,-0.007 0.04373,-0.0184 0.0656,-0.0276 0.04122,-0.0199 0.03202,-0.0132 0.09137,-0.0372 0.07695,-0.0217 -0.166624,0.0408 0.05105,-0.0125 0.103264,-0.0352 -0.128753,0.0478 0.09118,-0.0299 0.0057,-0.002 0.03417,-0.0148 0.01354,-0.005 -0.01728,0.006 -0.01769,0.006 -0.03516,0.0114 -0.0041,0.001 -0.01639,0.003 -0.0123,0.002 0.07214,-0.0172 0.04984,-0.01 0.09678,-0.0251 -0.0082,0.006 -0.02854,0.002 -0.03474,0.008 -0.0015,0.001 0.0037,-9e-5 0.0056,-1.4e-4 0.02298,-5.9e-4 -0.003,-3e-5 0.02323,-5.9e-4 0.03296,-5.7e-4 0.06592,-5.7e-4 0.09888,-2.8e-4 0.03878,6e-5 0.07755,9e-5 0.116337,1.1e-4 0.02549,1e-5 0.01286,1e-5 0.03789,1e-5 0.710513,1.8e-4 0.710718,-1.20938 2.03e-4,-1.20956 v 0 c -0.02488,0 -0.01232,0 -0.03766,-10e-6 -0.03858,-2e-5 -0.07714,-5e-5 -0.115716,-1.2e-4 -0.04141,-5e-5 -0.08281,-2e-4 -0.124206,8.9e-4 -0.07217,0.002 -0.144764,0.006 -0.215062,0.0283 -0.008,0.002 -0.01612,0.004 -0.02417,0.007 -7.25e-4,2.2e-4 0.0015,-2.8e-4 0.0019,-2.9e-4 0.01518,-0.003 0.03098,-0.003 0.04555,-0.008 0.01261,-0.005 -0.02647,0.004 -0.03961,0.006 -0.0406,0.008 -0.04628,0.0115 -0.08595,0.0242 -0.01029,0.004 -0.02062,0.007 -0.0309,0.0121 -0.02796,0.0111 0.121584,-0.0351 0.01122,-0.004 -0.0079,0.002 -0.01579,0.004 -0.02366,0.007 -1.57e-4,1.3e-4 -2.42e-4,2.6e-4 -4.84e-4,3e-4 0.01126,-0.002 0.0452,-0.008 0.03382,-0.006 -0.06204,0.007 -0.122463,0.0302 -0.181223,0.0539 0.02678,-0.007 -0.03317,0.0126 -0.03863,0.0149 -0.04292,0.0169 -0.03566,0.0134 -0.07353,0.0311 -0.0038,0.002 -0.0075,0.003 -0.01129,0.005 0.01549,-0.005 0.06271,-0.0189 0.04691,-0.0149 -0.0072,0.002 -0.01777,-0.002 -0.02185,0.005 -0.0038,0.006 0.02784,-0.004 0.02088,-0.003 -0.0578,0.0109 -0.01878,0.002 -0.07699,0.0158 -0.03688,0.0109 -0.03048,0.007 -0.06358,0.0193 -0.0039,10e-4 -0.01578,0.004 -0.01172,0.004 0.0062,-9e-5 0.0122,-0.003 0.01837,-0.004 0.0042,-8.7e-4 -0.02899,0.005 -0.01242,0.003 -0.06638,0.0121 -0.127499,0.03 -0.173495,0.045 -0.04844,0.016 -0.09628,0.033 -0.145837,0.0444 -0.06906,0.0221 -0.138677,0.0436 -0.204639,0.077 -0.05757,0.0311 -0.117131,0.0572 -0.171367,0.0968 0.01774,-0.006 0.0019,-0.001 -0.03437,0.0208 -0.02964,0.0177 -0.05954,0.0373 -0.08799,0.0573 -0.01218,0.008 -0.02391,0.0181 -0.03586,0.027 -0.05722,0.046 -0.115481,0.0904 -0.168745,0.14312 -0.03717,0.0374 -0.07467,0.075 -0.115082,0.10941 -0.0527,0.0485 -0.102771,0.0996 -0.149619,0.14725 -0.04228,0.0459 -0.05385,0.0563 -0.105705,0.10105 -0.07189,0.0618 -0.140457,0.12841 -0.209099,0.19522 -0.04961,0.0521 -0.09944,0.10403 -0.148965,0.15621 -0.07957,0.0827 -0.155546,0.17022 -0.226201,0.26404 -0.03657,0.0516 -0.07394,0.10274 -0.106642,0.15802 -0.04228,0.0698 -0.08344,0.14096 -0.113854,0.21957 -0.03028,0.0727 -0.05839,0.14675 -0.08458,0.22173 0.01298,-0.0237 4.7e-5,-5.8e-4 -0.01948,0.0519 -0.01535,0.0413 -0.03008,0.0869 -0.04303,0.12902 -0.0054,0.0176 -0.01,0.0354 -0.01493,0.0531 -0.01336,0.0532 -0.03101,0.10487 -0.04379,0.15859 -0.01696,0.0664 -0.03415,0.13324 -0.04389,0.20177 -0.0158,0.0873 -0.03173,0.1747 -0.03555,0.26422 -0.0058,0.0748 -0.01131,0.14965 -0.0092,0.22489 -2e-6,0.0507 -2e-6,0.10137 -3.2e-5,0.15212 -3.1e-5,0.0488 -9.1e-5,0.0976 -8.2e-5,0.14634 7.1e-5,0.0626 3.2e-5,0.12508 0.0024,0.18756 0.0027,0.0606 0.007,0.12097 0.01366,0.18112 0.0015,-0.0221 2.42e-4,-0.007 0.0015,0.0349 0.0012,0.045 0.0031,0.0901 0.0062,0.13495 0.001,0.0146 0.0024,0.029 0.0035,0.0436 0.006,0.0624 0.0075,0.0812 0.01206,0.16598 0.0081,0.094 0.01946,0.19299 0.041,0.27868 -0.0015,-0.008 -0.006,-0.0373 -0.0045,-0.0281 0.01191,0.0719 0.02703,0.14087 0.04841,0.20967 4.85e-4,0.001 -4.83e-4,-0.003 -10e-4,-0.004 0.0078,0.0261 0.02628,0.091 0.04628,0.16303 0.02125,0.0669 0.04184,0.13267 0.07119,0.19541 0.0012,0.002 -0.0022,-0.005 -0.0034,-0.008 -0.0064,-0.0184 -0.01339,-0.0366 -0.01917,-0.0551 -0.0035,-0.0111 -0.01141,-0.0454 -0.0084,-0.0341 0.01868,0.0706 0.03729,0.14133 0.07015,0.20479 -0.0052,-0.0132 -0.01078,-0.0261 -0.01561,-0.0396 -0.0027,-0.007 -0.0095,-0.0308 -0.007,-0.023 0.01527,0.0464 0.0287,0.0957 0.05051,0.13863 0.0026,0.005 -0.0038,-0.0109 -0.0058,-0.0159 0.0059,0.0165 0.01163,0.0331 0.01793,0.0494 0.0031,0.007 -0.01093,-0.0331 -0.0081,-0.0249 0.01165,0.0345 0.01574,0.0496 0.02806,0.0806 0.0012,0.003 -0.0017,-0.005 -0.0027,-0.008 0.04028,0.11784 0.0278,0.0691 0.06837,0.17129 -0.0015,-0.003 -0.006,-0.0142 -0.0043,-0.011 0.02834,0.057 0.05102,0.11838 0.0867,0.16988 -0.04151,-0.0755 0.02294,0.0423 0.02744,0.0506 0.0024,0.004 -0.0044,-0.008 -0.0065,-0.0129 0.04415,0.0791 0.08329,0.14131 0.138502,0.21003 -0.02282,-0.0345 -0.01941,-0.0243 0.0058,0.007 0.0045,0.005 -0.01549,-0.0252 -0.01163,-0.0189 0.02926,0.0475 0.01054,0.0182 0.05471,0.0834 0.04259,0.0558 0.07453,0.0956 0.125345,0.13972 0.0015,0.001 -0.0026,-0.002 -0.0039,-0.004 0.04134,0.0376 0.07285,0.0703 0.123691,0.10158 0.01276,0.007 -0.03403,-0.0241 -0.0357,-0.0289 0.04494,0.0401 0.03305,0.0295 0.07848,0.067 0.0057,0.004 -0.01102,-0.01 -0.01673,-0.0148 -0.0045,-0.003 0.0087,0.007 0.01298,0.0117 -0.01781,-0.0185 0.0019,0.002 0.03028,0.0282 0.0038,0.003 -0.01484,-0.0148 -0.01107,-0.0111 0.0057,0.005 0.01122,0.0112 0.01684,0.0167 0.0025,0.002 0.0078,0.0111 0.0076,0.007 -2.41e-4,-0.004 -0.0051,-0.005 -0.0077,-0.008 0.0469,0.0517 0.05011,0.0517 0.08988,0.0939 0.01825,0.0179 0.03631,0.0359 0.05472,0.0536 0.0038,0.003 0.01542,0.0147 0.01209,0.01 -0.0043,-0.005 -0.02016,-0.0189 -0.01508,-0.0142 0.06825,0.0628 0.0079,0.01 -0.01,-0.0142 0.128965,0.1467 -0.03805,-0.0421 0.05284,0.0604 0.01293,0.0147 0.02642,0.0284 0.03966,0.0426 0.0028,0.003 -0.0057,-0.006 -0.0086,-0.009 0.114936,0.11832 -0.03669,-0.0369 0.04831,0.0498 0.0084,0.009 0.03216,0.0355 0.02542,0.0251 -0.009,-0.0138 -0.04272,-0.0478 -0.03223,-0.0356 0.01402,0.0163 0.02852,0.0319 0.04279,0.0478 0.02257,0.0225 0.07212,0.078 0.109084,0.11113 0.06116,0.0511 0.124163,0.0982 0.192245,0.13501 0.08024,0.0442 0.0616,0.0304 0.160604,0.0801 0.03638,0.0134 0.0729,0.0266 0.109927,0.037 0.05829,0.027 0.116736,0.0535 0.176513,0.0752 0.04266,0.0133 0.05913,0.0186 0.132811,0.0438 0.05883,0.0139 0.118036,0.0278 0.178231,0.0295 0.04955,0.003 0.09822,0.0209 0.148363,0.017 0.04006,0 0.08012,0 0.120183,0 0.04212,-2e-5 0.08423,-2e-5 0.126345,-5e-5 0.03705,-3e-5 0.07409,-1.1e-4 0.111138,-8e-5 0.04018,8e-5 0.08038,8e-5 0.120542,0.001 0.04058,0.002 0.08096,0.006 0.121273,0.0129 0.05821,0.004 0.116269,0.005 0.174565,0.004 0.710513,0 0.710513,-1.20956 0,-1.20956 z" />
    <path
       style="fill:#000000;stroke-width:0.265169"
       id="path12"
       d="m 91.30028,148.94949 c 0.06868,8e-4 0.13716,-2e-5 0.205741,-0.004 0.04365,-0.005 0.08725,-0.01 0.131159,-0.012 0.0461,0.006 0.09117,-0.0182 0.136778,-0.0175 0.01823,-5.3e-4 0.03647,-5.3e-4 0.0547,-5.3e-4 0.05683,-5e-5 0.113659,3e-5 0.170487,6e-5 0.05901,3e-5 0.11802,5e-5 0.177029,5e-5 -0.0077,1e-5 -0.01544,2e-5 -0.02317,3e-5 -1.64e-4,1.3e-4 -7.97e-4,2.6e-4 -5.31e-4,5.3e-4 0.04669,0.007 0.09376,0.01 0.14083,0.0126 0.07875,0.001 0.157068,0.009 0.23569,0.0132 0.08697,0.005 0.174069,0.007 0.261162,0.007 0.06769,5.3e-4 0.135378,2.7e-4 0.203066,2.7e-4 0.07689,-6e-5 0.15378,-8e-5 0.230672,-9e-5 0.100597,0.003 0.200801,-0.003 0.300838,-0.0129 0.07466,-0.0101 0.149708,-0.0159 0.224958,-0.0189 0.06495,-0.002 0.129939,-0.002 0.194914,-0.002 0.09158,-0.003 0.182934,-0.0104 0.274491,-0.0142 0.07296,-0.003 0.145433,-0.0117 0.218317,-0.0158 0.04984,-0.003 0.09975,-0.003 0.149656,-0.004 0.08126,0.002 0.162275,-0.003 0.243266,-0.009 0.08768,-0.004 0.174858,-0.0138 0.261554,-0.027 0.04242,-0.0101 0.08563,-0.0115 0.128951,-0.0129 0.09712,-0.001 0.193848,-0.0111 0.290097,-0.0234 0.08206,-0.008 0.16447,-0.0108 0.246653,-0.0177 0.08794,-0.007 0.175357,-0.0205 0.262175,-0.036 0.0688,-0.009 0.13713,-0.0198 0.205218,-0.0329 0.08797,-0.0138 0.176091,-0.0263 0.263972,-0.0408 0.07066,-0.0136 0.142475,-0.0164 0.21398,-0.0223 0.0888,-0.009 0.177493,-0.0203 0.266148,-0.0312 0.09862,-0.0158 0.197439,-0.0302 0.295589,-0.0487 0.0924,-0.0183 0.185395,-0.0334 0.278402,-0.0483 0.09846,-0.0136 0.194284,-0.0418 0.292022,-0.0587 0.08931,-0.0188 0.1789,-0.0362 0.268168,-0.0553 0.07816,-0.0181 0.154644,-0.0429 0.233409,-0.0586 0.08508,-0.0148 0.166322,-0.0461 0.250889,-0.0627 0.09446,-0.0202 0.188446,-0.0419 0.281185,-0.0689 0.09293,-0.0262 0.183986,-0.0583 0.273767,-0.0936 0.05331,-0.0184 0.105192,-0.0406 0.158219,-0.0566 0.09493,-0.0291 0.189212,-0.0602 0.283179,-0.0923 0.08729,-0.0324 0.174924,-0.0633 0.264324,-0.0894 0.0806,-0.0254 0.160946,-0.0512 0.241916,-0.0753 0.12002,-0.035 0.23939,-0.0719 0.35775,-0.11222 0.10797,-0.0328 0.21209,-0.0769 0.31895,-0.11289 0.0797,-0.03 0.16268,-0.0494 0.24494,-0.071 0.15568,-0.0428 0.30977,-0.0911 0.46525,-0.13469 0.15624,-0.0434 0.30992,-0.0949 0.46201,-0.15084 0.10957,-0.0429 0.2195,-0.0844 0.32703,-0.13226 0.0881,-0.0368 0.17371,-0.0792 0.26012,-0.11972 0.0931,-0.0451 0.18438,-0.0939 0.27508,-0.14362 0.087,-0.0542 0.17842,-0.10038 0.2679,-0.15015 0.099,-0.0549 0.19428,-0.11664 0.28781,-0.18027 0.0575,-0.0404 0.1148,-0.081 0.17435,-0.11837 0.0722,-0.0514 0.1477,-0.0975 0.21977,-0.14912 0.0828,-0.0606 0.165,-0.12204 0.2446,-0.18674 0.0627,-0.0554 0.12732,-0.10856 0.19027,-0.16366 0.0598,-0.0579 0.0941,-0.0856 0.1524,-0.13908 0.0672,-0.0601 0.12228,-0.13198 0.18401,-0.1973 0.0544,-0.0607 0.10076,-0.11894 0.1455,-0.17439 0.0458,-0.0528 0.0857,-0.11058 0.12492,-0.16837 0.0509,-0.0807 -0.0772,0.12274 0.0358,-0.0505 0.009,-0.0136 -0.0416,0.0488 -0.0285,0.0392 0.006,-0.004 0.042,-0.0532 0.0524,-0.0671 0.0591,-0.0853 0.0397,-0.0513 0.0973,-0.12837 0.0319,-0.0435 0.0373,-0.0489 0.0701,-0.0932 0.0178,-0.024 0.0207,-0.0335 0.0164,-0.0209 0.0544,-0.0601 0.0993,-0.12828 0.14583,-0.19456 0.0611,-0.0848 0.10544,-0.1791 0.1535,-0.27125 0.0368,-0.0711 0.0731,-0.14217 0.10579,-0.21528 0.0285,-0.0565 0.0402,-0.0987 0.0631,-0.14503 0.0178,-0.0425 0.0112,-0.0257 0.0298,-0.0766 0.002,-0.006 0.009,-0.0254 0.007,-0.0191 -0.004,0.01 -0.008,0.02 -0.0113,0.0303 -10e-4,0.005 0.004,-0.009 0.006,-0.0133 0.006,-0.0128 0.0113,-0.0256 0.0168,-0.0384 -0.005,0.0207 2.7e-4,-0.002 0.0216,-0.0518 -0.002,0.005 -0.004,0.0109 -0.006,0.0163 10e-5,1e-4 2.3e-4,5.3e-4 2.6e-4,2.6e-4 0.0188,-0.0376 0.0169,-0.0352 0.0358,-0.079 0.009,-0.0195 0.0306,-0.0718 0.004,-0.0104 0.3568,-0.69196 -0.62613,-1.19433 -0.98294,-0.50237 v 0 c -0.0159,0.0334 -0.0301,0.0625 -0.0439,0.096 0.0183,-0.0356 -0.0275,0.0582 -0.039,0.0855 -0.002,0.006 0.0103,-0.0223 0.008,-0.0167 -0.005,0.0117 -0.0106,0.0232 -0.0159,0.0349 0.007,-0.0137 -0.001,0.002 -0.007,0.0165 -10e-4,0.002 -0.0294,0.0656 -0.0357,0.0875 -7.9e-4,0.003 0.002,-0.006 0.004,-0.009 0.001,-0.002 -0.002,0.004 -0.003,0.007 -0.0203,0.0469 -0.0397,0.0954 -0.0629,0.14457 -0.0236,0.0546 -0.0462,0.0947 -0.0777,0.15663 -0.0248,0.0485 -0.0465,0.0983 -0.0765,0.14383 -0.0349,0.05 -0.0558,0.0858 -0.0905,0.12213 -0.0478,0.0595 -0.0767,0.0997 -0.12236,0.1595 -0.0378,0.051 -0.0797,0.10321 -0.0978,0.12897 -0.0213,0.0288 -0.0536,0.0672 -0.0943,0.12771 -0.0243,0.0348 -0.0463,0.0686 -0.0757,0.10008 0.0203,-0.0172 0.001,-0.002 -0.0371,0.0446 -0.0127,0.0152 -0.0233,0.0301 -0.0364,0.0451 -0.005,0.005 -0.009,0.0109 -0.0142,0.0163 -0.0442,0.0485 -0.0971,0.11137 -0.12029,0.13347 -0.0459,0.0429 -0.0943,0.0829 -0.13906,0.12696 -0.0167,0.0171 -7.9e-4,0.001 -0.0392,0.0332 -0.0405,0.0336 -0.0787,0.0695 -0.1191,0.10297 -0.0595,0.0522 -0.12682,0.0952 -0.18915,0.14381 -0.0542,0.0405 -0.11386,0.073 -0.16838,0.11305 -0.002,0.001 0.004,-0.002 0.006,-0.003 -0.0717,0.0456 -0.14203,0.0934 -0.21122,0.14276 -0.0639,0.046 -0.13218,0.0868 -0.20052,0.12581 -0.0859,0.049 -0.17552,0.0917 -0.25889,0.14515 -0.0702,0.0385 -0.14067,0.0764 -0.2125,0.11183 -0.0821,0.0385 -0.16312,0.0792 -0.24694,0.11365 -0.0825,0.0391 -0.16929,0.0666 -0.2533,0.10201 -0.12461,0.0461 -0.25066,0.0883 -0.37878,0.12382 -0.14928,0.0422 -0.29758,0.0877 -0.44691,0.12969 -0.1096,0.0288 -0.21968,0.0564 -0.32613,0.0957 -0.1048,0.0369 -0.20822,0.0777 -0.3142,0.11124 -0.104526,0.0359 -0.210246,0.0678 -0.316296,0.099 -0.0806,0.024 -0.160629,0.0495 -0.240721,0.075 -0.103172,0.031 -0.205512,0.0646 -0.30625,0.10272 -0.08184,0.0279 -0.163934,0.0551 -0.246613,0.0805 -0.08343,0.0253 -0.163996,0.0572 -0.245744,0.0872 -0.05946,0.024 -0.120252,0.0446 -0.182019,0.0618 -0.06605,0.021 -0.134694,0.0323 -0.20201,0.0485 -0.08244,0.0187 -0.163359,0.0428 -0.245693,0.0616 -0.07799,0.0172 -0.155684,0.036 -0.232333,0.0584 -0.08255,0.0177 -0.165416,0.0336 -0.247987,0.0512 -0.0858,0.0172 -0.170922,0.0377 -0.257238,0.0525 -0.104814,0.017 -0.209618,0.0341 -0.313795,0.0546 -0.07332,0.0155 -0.148176,0.0226 -0.22173,0.0369 -0.07471,0.01 -0.149685,0.0181 -0.224504,0.0268 -0.09955,0.01 -0.199868,0.0134 -0.298323,0.033 -0.09734,0.0161 -0.195122,0.029 -0.292328,0.0459 -0.06349,0.0122 -0.12743,0.0209 -0.191436,0.0304 -0.05313,0.01 -0.106497,0.0184 -0.160349,0.0226 -0.09798,0.008 -0.196451,0.0102 -0.294083,0.0228 -0.06299,0.008 -0.12623,0.0152 -0.189852,0.0152 -0.0908,0.004 -0.18166,0.009 -0.270948,0.0273 -0.04952,0.007 -0.105569,0.0133 -0.158292,0.0147 -0.05718,0.004 -0.114011,0.009 -0.171449,0.006 -0.0687,5.3e-4 -0.13742,0.002 -0.206033,0.006 -0.06697,0.004 -0.13368,0.0113 -0.200371,0.0149 -0.07645,0.003 -0.152893,0.007 -0.229168,0.0132 -0.08027,7e-5 -0.160578,1.9e-4 -0.240814,0.003 -0.09945,0.004 -0.198744,0.0114 -0.297475,0.0244 -0.06038,0.008 -0.120808,0.007 -0.181638,0.006 -0.07707,1e-5 -0.15415,3e-5 -0.231224,9e-5 -0.0643,4e-5 -0.128597,1.3e-4 -0.192895,-2.5e-4 -0.06914,-5.3e-4 -0.138279,-0.002 -0.207325,-0.006 -0.08018,-0.005 -0.160191,-0.0122 -0.240514,-0.0134 -0.05874,-0.002 -0.116445,-0.0159 -0.175509,-0.0146 -0.05883,0 -0.117669,-1e-5 -0.176502,-5e-5 -0.0587,-3e-5 -0.117407,-1.2e-4 -0.17611,-5e-5 -0.05111,2.5e-4 -0.102277,8e-4 -0.15322,0.005 -0.03119,0.003 -0.06215,0.007 -0.0931,0.0117 -0.0062,0.001 -0.01251,0.002 -0.01876,0.003 -7.96e-4,1.5e-4 -0.0032,7.9e-4 -0.0024,7.9e-4 0.0079,-2.4e-4 0.01589,-7.9e-4 0.02383,-0.001 -0.05336,0.003 -0.106903,0.006 -0.159776,0.0139 0.0056,1.2e-4 0.02241,1.8e-4 0.01679,2.7e-4 -0.04555,0.002 -0.09123,-0.001 -0.136796,0 -0.781271,0 -0.781271,1.1 0,1.1 z" />
    <path
       style="fill:#000000;stroke-width:0.264583"
       id="path13"
       d="m 119.07427,155.08491 c 0.0472,0 0.0944,0 0.14153,0 0.0372,0 0.0745,0 0.11171,0 0.0379,0 0.0757,0 0.11363,0 0.11493,0.005 0.22471,-0.0294 0.33147,-0.0673 0.048,-0.0171 0.0949,-0.0369 0.14185,-0.0565 0.0943,-0.0475 0.0758,-0.0376 0.15255,-0.0767 -0.008,0.004 -0.0325,0.0163 -0.0241,0.0129 0.0232,-0.009 0.0753,-0.0365 0.0959,-0.0485 0.0287,-0.0168 0.0604,-0.041 0.0912,-0.0566 0.0612,-0.0389 0.12155,-0.0787 0.17994,-0.12197 0.0523,-0.0386 0.0987,-0.0843 0.14821,-0.12612 0.0603,-0.0503 0.11255,-0.10902 0.16286,-0.169 0.0162,-0.021 0.023,-0.0297 0.0624,-0.0731 0.03,-0.0283 0.0827,-0.10208 0.0964,-0.1158 0.0362,-0.0382 0.0716,-0.0768 0.10639,-0.11623 0.0389,-0.0431 0.0781,-0.0856 0.1148,-0.13063 0.0336,-0.0395 0.0622,-0.0826 0.09,-0.12627 0.0124,-0.0195 0.006,-0.0118 0.0121,-0.0189 0.0346,-0.0467 0.0647,-0.0964 0.0968,-0.14474 0.0436,-0.0699 0.0835,-0.14193 0.12317,-0.2141 0.0356,-0.0593 0.0612,-0.12365 0.0922,-0.1852 0.0278,-0.0564 0.0529,-0.11406 0.0771,-0.17207 0.0231,-0.0397 0.048,-0.10154 0.0684,-0.15219 0.007,-0.0102 0.005,-0.008 0.0134,-0.0308 0.007,-0.0189 0.0236,-0.0676 0.0323,-0.0972 0.01,-0.0332 0.0112,-0.0454 0.009,-0.0302 0.0134,-0.0413 0.0292,-0.0817 0.0445,-0.12226 0.0232,-0.0749 0.0473,-0.14948 0.07,-0.22453 0.0342,-0.0979 0.0489,-0.20044 0.0688,-0.3017 0.0191,-0.10794 0.0358,-0.21632 0.0472,-0.32535 0.009,-0.0976 0.0112,-0.19574 0.0121,-0.29374 5.3e-4,-0.078 1.6e-4,-0.15598 5e-5,-0.23397 -1e-4,-0.0692 -1.3e-4,-0.13836 -1.4e-4,-0.20754 0.002,-0.10907 -0.0148,-0.21733 -0.0308,-0.3249 -0.0179,-0.10913 -0.0471,-0.21564 -0.0826,-0.3202 -0.0249,-0.0669 -0.0499,-0.13389 -0.0775,-0.19975 -0.0335,-0.0669 -0.0232,-0.0591 -0.0557,-0.14699 -0.0257,-0.0595 -0.0416,-0.12248 -0.0614,-0.1841 -0.0248,-0.0849 -0.0564,-0.16751 -0.0906,-0.24899 -0.0239,-0.0799 -0.0584,-0.15628 -0.0904,-0.23319 -0.0254,-0.0694 -0.0567,-0.13641 -0.0891,-0.20275 -0.0279,-0.0648 -0.0564,-0.12959 -0.0856,-0.19391 -0.0385,-0.087 -0.0797,-0.1726 -0.11972,-0.25886 -0.0404,-0.0951 -0.0856,-0.188 -0.13089,-0.28084 -0.0289,-0.0683 -0.0652,-0.13302 -0.0977,-0.1996 -0.0202,-0.0443 -0.0374,-0.0831 -0.0499,-0.11304 -0.0186,-0.0486 -0.0427,-0.0948 -0.0602,-0.14376 -0.0276,-0.0673 -0.0556,-0.13443 -0.0817,-0.20229 -0.0202,-0.057 -0.0413,-0.11367 -0.0626,-0.17023 -0.0168,-0.0355 -0.0276,-0.0733 -0.0427,-0.10946 -0.0277,-0.0661 -0.0181,-0.0345 -0.0249,-0.0574 7.9e-4,0.002 0.003,0.007 0.003,0.005 -0.0165,-0.0549 -0.043,-0.1037 -0.0616,-0.14863 -0.026,-0.064 -0.055,-0.1265 -0.0853,-0.18849 -0.0276,-0.0583 -0.0535,-0.11742 -0.0824,-0.17532 -0.0293,-0.065 -0.0589,-0.13047 -0.0897,-0.19514 -0.0324,-0.075 -0.0693,-0.14777 -0.10934,-0.21888 -0.0206,-0.0416 -0.043,-0.0888 -0.0645,-0.13259 -0.0367,-0.0773 -0.0813,-0.15079 -0.11728,-0.22844 -0.0368,-0.0769 -0.0735,-0.15376 -0.1124,-0.22961 -0.0215,-0.0408 -0.0363,-0.0705 -0.067,-0.1226 -0.002,-0.003 -0.008,-0.0133 -0.006,-0.0101 0.003,0.005 0.006,0.009 0.008,0.0141 -0.0184,-0.0364 -0.0343,-0.0737 -0.0516,-0.11069 -0.0219,-0.0444 -0.0179,-0.0426 -0.0594,-0.12092 -0.001,-0.002 -0.004,-0.008 -0.003,-0.006 0.0331,0.0586 -0.0582,-0.11312 -0.0268,-0.0543 -0.023,-0.0553 -0.0645,-0.1262 -0.0789,-0.15096 0.0232,0.0394 -0.0603,-0.10426 -0.0169,-0.0291 -0.34637,-0.69643 -1.33128,-0.20659 -0.98491,0.48985 v 0 c 0.009,0.017 0.0177,0.0341 0.027,0.0509 0.005,0.008 0.008,0.0173 0.0145,0.0242 5.3e-4,5.3e-4 -0.0501,-0.0928 0.0104,0.019 0.002,0.003 0.004,0.007 0.006,0.0102 0.0794,0.1348 -0.0468,-0.0925 0.0193,0.0365 0.036,0.0761 0.0315,0.0617 0.0716,0.14376 -0.002,-0.005 -0.004,-0.009 -0.006,-0.0139 -2.6e-4,-8e-4 0.001,0.002 0.001,0.002 0.008,0.016 0.0146,0.0323 0.0226,0.0481 0.004,0.009 -0.016,-0.0361 -0.012,-0.0271 0.0192,0.0443 0.0135,0.0318 0.029,0.0639 -0.002,-0.005 -0.008,-0.0186 -0.006,-0.014 0.0206,0.047 0.0413,0.0939 0.0647,0.13966 0.048,0.0891 0.02,0.0295 0.0655,0.12058 0.0347,0.0673 0.0668,0.13582 0.0997,0.20405 0.0391,0.08 0.0816,0.15822 0.12178,0.23768 0.034,0.0688 0.0661,0.13853 0.10392,0.20536 -0.001,-0.003 -0.006,-0.0124 -0.004,-0.009 0.0276,0.0445 0.0427,0.0961 0.0674,0.14212 0.0337,0.0706 0.0653,0.14203 0.0984,0.21282 0.0281,0.0562 0.0523,0.11415 0.08,0.17062 0.0297,0.0594 0.0257,0.0516 0.0558,0.1232 0.0451,0.10834 0.0259,0.0531 0.0614,0.14947 0.0157,0.0364 0.0306,0.0717 0.0536,0.13188 0.0229,0.0586 0.0435,0.11812 0.0653,0.17714 0.025,0.0639 0.0503,0.12786 0.0774,0.19093 0.0234,0.0611 0.0498,0.12077 0.075,0.18109 0.0335,0.0783 0.0441,0.0997 0.0765,0.17169 0.0328,0.0669 0.0689,0.13213 0.0982,0.20071 0.042,0.0853 0.0828,0.17103 0.12024,0.2585 0.0389,0.0839 0.0792,0.16721 0.11651,0.25188 0.0334,0.0734 0.0654,0.14726 0.0983,0.22083 0.0219,0.0448 0.0447,0.0925 0.063,0.14516 0.0347,0.0824 0.0673,0.1654 0.0975,0.24969 0.0138,0.009 5.3e-4,-1.5e-4 0.0169,0.0424 0.0132,0.0342 0.0241,0.0692 0.0349,0.10427 0.0255,0.0773 0.0456,0.15652 0.078,0.23143 0.0247,0.0629 0.0413,0.13422 0.0729,0.19004 0.0244,0.0552 0.0381,0.0965 0.0526,0.13552 0.0177,0.038 0.0216,0.0815 0.0329,0.12146 0.008,0.0518 7.9e-4,0.003 0.0111,0.0817 0.006,0.0462 0.008,0.0198 0.007,0.0771 2e-5,0.0696 5e-5,0.13921 1.5e-4,0.20881 1e-4,0.0741 2.6e-4,0.14822 -1e-5,0.22233 -5.3e-4,0.0643 -0.001,0.1287 -0.007,0.19283 -0.007,0.0765 -0.0205,0.15216 -0.0329,0.22791 -0.0123,0.0643 -0.0196,0.12965 -0.0416,0.19168 -0.016,0.0529 -0.0394,0.10888 -0.0499,0.16234 -2.7e-4,0.002 0.002,-0.003 0.002,-0.005 -0.0192,0.0518 -0.0393,0.10326 -0.0564,0.15582 -0.0433,0.13394 -0.004,0.0104 -0.019,0.0606 -0.003,0.01 -0.0153,0.0359 -0.009,0.0285 0.008,-0.009 0.009,-0.0225 0.0133,-0.0337 0.001,-0.003 -0.003,0.006 -0.004,0.01 -0.006,0.0129 -0.0111,0.0258 -0.0166,0.0386 -0.0157,0.0423 -0.0387,0.0849 -0.0614,0.13494 -0.0182,0.0436 -0.0369,0.087 -0.0582,0.12924 -0.0202,0.0438 -0.0353,0.0809 -0.0612,0.12395 -0.0265,0.049 -0.0534,0.0977 -0.0822,0.14526 -0.0263,0.0412 -0.053,0.0827 -0.0898,0.13396 -0.007,0.0106 -0.0139,0.0212 -0.0208,0.0319 -0.004,0.006 -0.008,0.0105 -0.0103,0.0168 -0.002,0.005 0.0101,-0.0171 0.009,-0.0122 -10e-4,0.005 -0.007,0.008 -0.009,0.0128 -7.9e-4,0.002 0.0386,-0.0469 -0.008,0.0106 -0.0156,0.0196 -0.0571,0.0633 -0.085,0.0953 -0.036,0.0409 -0.0678,0.0748 -0.10497,0.11463 -0.0377,0.0433 -0.0654,0.0821 -0.0914,0.11031 -0.035,0.0391 -0.0684,0.0782 -0.10123,0.11889 0.003,-0.004 0.0137,-0.0149 0.0104,-0.011 -0.0333,0.0391 -0.009,0.0112 -0.0395,0.0407 -0.0283,0.0249 -0.056,0.0497 -0.0849,0.0748 -0.0275,0.0219 -0.0579,0.0394 -0.0872,0.0587 -0.002,0.002 0.005,-0.002 0.008,-0.004 -0.0737,0.0444 -0.0467,0.0363 -0.13023,0.0735 0.007,-0.003 0.0298,-0.0134 0.0223,-0.0101 -0.0342,0.0151 -0.0723,0.0292 -0.10271,0.0511 -0.007,0.005 0.0206,-0.0112 0.0237,-0.0108 -0.0284,0.0122 -0.0523,0.0228 -0.0981,0.039 0.026,-0.006 -0.009,0.002 -0.0255,0.008 -0.006,0.002 0.0117,-0.003 0.0176,-0.004 0.0724,-0.0114 0.0284,-0.005 0.0842,-0.008 0.007,-2.6e-4 -0.0136,0 -0.0204,0 -0.0379,0 -0.0757,0 -0.11363,0 -0.0372,0 -0.0745,0 -0.11171,0 -0.0472,0 -0.0943,0 -0.14152,0 -0.77782,0 -0.77782,1.1 0,1.1 z" />
    <path
       style="fill:#000000;stroke-width:0.264583"
       id="path14"
       d="m 119.41395,145.07603 c -0.0252,-0.0289 -0.0479,-0.0535 -0.0719,-0.0824 -0.002,-0.002 0.004,0.003 0.005,0.005 0.006,0.007 0.0109,0.0144 0.0165,0.0216 -0.007,-0.0107 -0.0146,-0.0214 -0.0219,-0.0322 0.001,0.002 0.005,0.007 0.004,0.005 -0.0448,-0.0735 10e-4,0.004 -0.005,-0.007 -0.006,-0.0114 -0.0332,-0.0543 -0.036,-0.0587 0.0152,0.0124 0.0154,0.0392 0.0279,0.0527 0.006,0.007 -0.007,-0.0175 -0.0105,-0.026 -0.0264,-0.0558 -0.0265,-0.0555 -0.0456,-0.0902 0.004,0.007 0.014,0.027 0.0111,0.02 -0.0274,-0.0652 -0.0515,-0.0992 -0.0755,-0.14327 -0.0578,-0.09 -0.0251,-0.0472 -0.0874,-0.1411 0.008,0.0109 -0.0322,-0.0537 -0.0254,-0.0451 -0.0249,-0.0447 -0.0451,-0.0857 -0.0703,-0.13208 0.0237,0.0459 -0.0265,-0.0582 0.004,0.005 0.003,0.005 0.009,0.0222 0.007,0.0165 -0.006,-0.0217 -0.0276,-0.0709 -0.0338,-0.086 -0.001,-0.005 0.003,0.005 0.002,0.003 -0.0159,-0.0425 -0.0323,-0.0838 -0.0511,-0.12531 -0.007,-0.0144 -0.0144,-0.0288 -0.0217,-0.0432 -5.3e-4,-0.001 -0.002,-0.005 -0.002,-0.003 0.003,0.006 0.0105,0.0227 0.008,0.0168 -0.0114,-0.0299 -0.0266,-0.0587 -0.0407,-0.0875 -0.0167,-0.0433 -0.0417,-0.0828 -0.06,-0.1253 -0.009,-0.0176 -0.0186,-0.0352 -0.0279,-0.0528 -0.002,-0.004 -0.009,-0.0169 -0.007,-0.0126 0.006,0.0115 0.0196,0.0468 0.0175,0.0342 -0.002,-0.0134 -0.0541,-0.10912 -0.0544,-0.10959 -0.0139,-0.0245 0.005,0.008 -0.0262,-0.0435 -0.002,-0.003 0.008,0.0126 0.006,0.009 -0.0371,-0.0662 0.001,0.005 0.004,0.009 -0.019,-0.0439 -0.0415,-0.0862 -0.0606,-0.13008 -0.0308,-0.0614 -0.04,-0.0857 -0.0739,-0.15296 -0.0278,-0.0531 -0.0579,-0.10514 -0.0818,-0.15275 -0.0342,-0.0663 -0.0647,-0.11977 -0.0916,-0.16756 -0.008,-0.0145 0.002,0.003 -0.0202,-0.0341 -0.007,-0.0127 0.0274,0.0519 0.0211,0.0387 -0.0291,-0.0609 -0.0244,-0.0494 -0.0618,-0.11017 0.0105,-2.6e-4 -0.011,-0.017 -0.0165,-0.0255 -0.002,-0.004 0.005,0.008 0.008,0.0115 0.005,0.009 0.0206,0.0379 0.0158,0.0282 -0.0229,-0.0469 -0.0297,-0.0545 -0.0587,-0.1003 0.006,0.009 0.0107,0.0189 0.0177,0.0272 0.005,0.005 -0.007,-0.0123 -0.0102,-0.0183 -0.0187,-0.0321 -0.0385,-0.0629 -0.058,-0.0946 -0.006,-0.009 -0.0115,-0.017 -0.017,-0.0255 -0.002,-0.003 0.005,0.006 0.007,0.01 0.006,0.009 0.0208,0.0379 0.0161,0.0281 -0.0348,-0.0713 -0.0277,-0.0524 -0.0105,-0.0184 -0.0245,-0.0607 -0.0633,-0.11255 -0.10225,-0.1643 -0.002,-0.002 0.007,0.008 0.005,0.006 -0.0378,-0.0463 -0.0518,-0.0617 -0.0322,-0.0398 -0.0272,-0.0349 0.01,0.0131 0.007,0.01 -0.0101,-0.0143 -0.021,-0.0282 -0.0313,-0.0424 -0.002,-0.003 0.005,0.006 0.007,0.008 0.0198,0.0292 0.0478,0.0753 -0.004,-0.009 0.0186,0.0293 0.0561,0.10147 -0.004,-0.0104 -0.39235,-0.67161 -1.34215,-0.11675 -0.9498,0.55486 v 0 c -0.0481,-0.0952 0.0189,0.0414 0.034,0.0589 -0.004,-0.007 -0.0176,-0.0297 -0.013,-0.0224 0.0676,0.10679 0.0313,0.0527 0.0944,0.13804 0.008,0.0102 0.0159,0.0211 0.025,0.0306 0.007,0.007 -0.0229,-0.0301 -0.0173,-0.0225 0.0676,0.0908 -0.0284,-0.0392 -0.0285,-0.0601 0.0444,0.0949 0.03,0.0659 0.0885,0.16363 0.005,0.008 0.009,0.0172 0.0157,0.0243 0.005,0.005 -0.0148,-0.0257 -0.0111,-0.0193 0.0215,0.0371 0.038,0.0655 0.0625,0.10581 -0.005,-0.009 -0.0106,-0.0173 -0.0155,-0.0262 -0.004,-0.007 -0.0136,-0.0272 -0.01,-0.0205 0.0228,0.043 0.0446,0.0862 0.0726,0.12611 -0.006,-0.0108 -0.0129,-0.0214 -0.0188,-0.0325 -0.005,-0.009 -0.0168,-0.0358 -0.0125,-0.0269 0.0222,0.0449 0.0396,0.0817 0.0605,0.11493 -0.003,-0.006 -0.012,-0.0232 -0.009,-0.0174 0.0266,0.0496 0.039,0.0706 0.0634,0.11723 0.0277,0.055 0.0576,0.10861 0.0869,0.16277 0.0164,0.0336 0.0318,0.068 0.0491,0.10177 0.0172,0.0377 0.0346,0.0753 0.0528,0.1125 0.0215,0.046 0.0626,0.12431 0.0753,0.14175 -0.006,-0.0127 -0.0116,-0.0259 -0.0186,-0.0382 -0.005,-0.009 0.008,0.0183 0.0124,0.0273 10e-4,0.003 -0.004,-0.0105 -0.003,-0.008 0.011,0.0232 0.0213,0.0468 0.0324,0.0699 0.003,0.007 0.006,0.0147 0.0113,0.0206 0.004,0.005 -0.005,-0.0109 -0.007,-0.0163 0.0349,0.0733 0.0392,0.0759 0.0684,0.1428 0.0163,0.033 0.0295,0.0674 0.047,0.0998 0.002,0.004 -0.003,-0.008 -0.005,-0.0114 0.003,0.006 0.008,0.0232 0.008,0.017 -7.9e-4,-0.008 -0.0112,-0.0298 -0.008,-0.0224 0.0156,0.0412 0.0183,0.0501 0.0438,0.11444 -0.002,-0.005 -0.003,-0.009 -0.005,-0.0139 -7.9e-4,-0.003 0.002,0.006 0.003,0.009 0.007,0.0193 0.0133,0.0388 0.021,0.0578 0.0167,0.0409 0.0187,0.0439 0.0321,0.0696 0.008,0.0158 0.0164,0.0316 0.0247,0.0474 -0.003,-0.006 -0.012,-0.0246 -0.009,-0.0185 0.0195,0.0391 0.0384,0.0786 0.0604,0.11641 0.03,0.0553 0.0612,0.10999 0.0967,0.16198 -0.006,-0.0105 -0.0242,-0.0428 -0.0182,-0.0321 0.0135,0.024 0.0392,0.0727 0.0519,0.0885 -0.003,-0.005 -0.0106,-0.0214 -0.008,-0.0161 0.0424,0.0815 0.0236,0.0401 0.0639,0.12453 0.0184,0.0334 0.0166,0.0314 -0.009,-0.0248 -10e-4,-0.002 0.002,0.005 0.003,0.007 0.0264,0.062 0.0233,0.0594 0.055,0.11583 0.006,0.0115 0.0137,0.0224 0.0205,0.0336 -0.001,-0.002 -0.004,-0.008 -0.003,-0.006 0.0219,0.0296 0.0356,0.0667 0.0588,0.0942 0.04,0.0582 0.0827,0.11809 0.13327,0.16817 0.006,0.006 -0.011,-0.0135 -0.0165,-0.0202 0.4859,0.60737 1.34486,-0.0798 0.85896,-0.68716 z" />
    <path
       style="fill:#000000;stroke-width:0.264583"
       id="path15"
       d="m 117.1692,142.47441 c -0.0399,0.0317 -0.0731,0.0704 -0.1128,0.10221 -0.007,0.005 0.0124,-0.0111 0.0187,-0.0167 -0.038,0.0257 -0.0584,0.0367 -0.096,0.0599 -0.006,-0.008 0.0357,-0.0181 0.026,-0.0154 -0.013,0.004 -0.0243,0.0118 -0.0364,0.0178 -0.0282,0.0142 -0.0554,0.0301 -0.0833,0.0449 -0.064,0.0367 -0.0367,0.0208 -0.12221,0.06 -0.0759,0.0374 -0.15472,0.068 -0.2326,0.10086 -0.0743,0.0262 -0.14929,0.0504 -0.22309,0.0781 -0.0606,0.021 -0.12148,0.0415 -0.18192,0.0632 -0.0688,0.0217 -0.13641,0.0474 -0.20283,0.0755 -0.0582,0.0184 -0.11555,0.0404 -0.17228,0.0633 -0.0705,0.0315 -0.14156,0.0609 -0.21357,0.0889 -0.0663,0.0209 -0.13128,0.0456 -0.19595,0.0713 -0.0491,0.0203 -0.10044,0.0364 -0.15213,0.049 -0.0931,0.0248 -0.18528,0.0525 -0.27717,0.0815 -0.0652,0.017 -0.12993,0.0355 -0.19519,0.0522 -0.0534,0.0117 -0.10675,0.0232 -0.16002,0.0354 -0.0482,0.0103 -0.0971,0.0176 -0.14554,0.0271 -0.0493,0.006 -0.0973,0.0253 -0.14682,0.0295 -0.0607,0.007 -0.12117,0.0171 -0.18142,0.0275 -0.0467,0.007 -0.0941,0.008 -0.14116,0.0121 -0.0726,0.007 -0.14524,0.0119 -0.21761,0.0213 -0.046,0.007 -0.0924,0.007 -0.13875,0.008 -0.074,-7e-5 -0.14772,0.002 -0.22146,0.008 -0.0578,0.006 -0.11586,0.007 -0.17388,0.009 -0.0501,0.001 -0.10014,0.001 -0.15021,0.001 -0.0617,-2e-5 -0.1234,-7e-5 -0.1851,-1e-4 -0.0685,-2e-5 -0.13709,-2e-5 -0.20563,-2e-5 -0.0684,0 -0.13669,0 -0.20504,0 -0.0482,-7e-5 -0.0978,0.001 -0.14295,-0.003 -0.057,-0.003 -0.11323,-0.0103 -0.16984,-0.017 -0.0633,-0.006 -0.1264,-0.0103 -0.1895,-0.0176 0.003,1.9e-4 0.013,0.002 0.01,5.2e-4 -0.0295,-0.009 -0.0643,-0.0113 -0.0945,-0.0164 -0.005,-8e-4 0.0198,0.004 0.0151,0.002 -0.007,-0.003 -0.0147,-0.003 -0.0221,-0.005 -0.0555,-0.0177 -0.11214,-0.0315 -0.16923,-0.0432 -0.0341,-0.0103 -0.0672,-0.024 -0.10078,-0.036 -0.0517,-0.0217 -0.1052,-0.038 -0.15727,-0.0587 -0.0557,-0.0183 -0.1115,-0.036 -0.16691,-0.0551 -0.0164,-0.008 -0.0487,-0.0189 -0.064,-0.0244 -0.008,-0.003 0.0152,0.005 0.0227,0.008 0.003,0.001 0.0123,0.005 0.009,0.004 -0.009,-0.005 -0.0185,-0.009 -0.0278,-0.0135 -0.0444,-0.0189 -0.0836,-0.0396 -0.13184,-0.0633 -0.0341,-0.0229 -0.0769,-0.0293 -0.11216,-0.0495 -0.003,-0.002 0.0128,0.005 0.01,0.004 -0.0184,-0.01 -0.0332,-0.0138 -0.0219,-0.0107 -0.0569,-0.0282 -0.01,-0.006 -0.099,-0.0434 -0.002,-7.9e-4 0.004,10e-4 0.006,0.002 0.008,0.003 0.0303,0.0139 0.0229,0.0101 -0.0392,-0.0204 -0.0557,-0.0259 -0.0977,-0.043 -0.002,-0.001 -0.01,-0.004 -0.007,-0.003 0.004,0.002 0.009,0.004 0.0131,0.005 0.002,5.3e-4 -0.004,-0.002 -0.005,-0.003 -0.0112,-0.006 -0.0225,-0.0113 -0.0339,-0.0169 -0.009,-0.005 -0.0439,-0.0209 -0.0538,-0.0257 -0.0626,-0.0303 -0.1256,-0.0592 -0.18955,-0.0866 -0.0634,-0.0264 -0.11739,-0.0507 -0.18094,-0.0764 -0.0553,-0.0289 -0.12041,-0.0361 -0.17539,-0.0645 -0.0728,-0.033 -0.14864,-0.0586 -0.22333,-0.087 -0.0469,-0.0157 -0.0919,-0.0367 -0.13637,-0.0583 -0.0759,-0.0318 -0.0859,-0.0389 -0.15292,-0.0676 -0.0383,-0.0171 -0.0748,-0.0372 -0.11123,-0.0578 -0.0266,-0.0173 0.001,2.6e-4 -0.0599,-0.034 -0.005,-0.003 -0.0207,-0.0125 -0.0152,-0.0101 0.0143,0.006 0.0658,0.0452 -0.0267,-0.0212 -0.0446,-0.0318 -0.0281,-0.021 -0.0723,-0.0616 -0.047,-0.0424 -0.095,-0.0834 -0.14537,-0.12179 -0.0276,-0.0239 -0.0596,-0.0442 -0.09,-0.064 -0.008,-0.005 -0.0313,-0.0204 -0.0238,-0.0147 0.009,0.007 0.0178,0.0146 0.0285,0.0183 0.008,0.003 -0.0137,-0.0103 -0.0205,-0.0155 -0.045,-0.0336 -0.0929,-0.0743 -0.14462,-0.11364 -0.0426,-0.0333 -0.0857,-0.0657 -0.12801,-0.0993 -0.047,-0.0387 -0.0927,-0.0789 -0.13882,-0.11862 -0.0493,-0.0428 -0.0979,-0.0863 -0.14458,-0.13204 -0.0403,-0.0394 -0.0777,-0.0815 -0.11559,-0.12322 -0.0314,-0.0321 -0.0575,-0.0675 -0.086,-0.10222 0.001,0.001 0.004,0.005 0.003,0.004 -0.0215,-0.0334 -0.0501,-0.0619 -0.0751,-0.0927 -0.002,-0.003 0.005,0.005 0.007,0.008 -0.0303,-0.0467 -0.0717,-0.0826 -0.11,-0.12226 -0.008,-0.008 0.0166,0.0146 0.0241,0.0228 0.0116,0.0126 0.0436,0.0526 0.033,0.0392 -0.0174,-0.0219 -0.0355,-0.0432 -0.0533,-0.0648 -0.0227,-0.0264 0.0329,0.0383 0.0153,0.0185 -0.0175,-0.0197 -0.0745,-0.0911 -0.10587,-0.11237 -0.014,-0.01 0.0234,0.0248 0.0368,0.0352 0.008,0.006 -0.0134,-0.0148 -0.0201,-0.0221 0.004,0.004 0.008,0.009 0.0119,0.013 0.002,0.002 -0.004,-0.005 -0.006,-0.007 -0.0136,-0.016 -0.027,-0.0322 -0.0411,-0.0477 -0.0289,-0.0318 -0.0274,-0.027 -0.0539,-0.0535 -0.002,-0.002 0.004,0.003 0.006,0.005 -0.0573,-0.0546 -0.11498,-0.10875 -0.17348,-0.16205 -0.0372,-0.0324 -0.0744,-0.0648 -0.11179,-0.0969 -0.0263,-0.0226 -0.0182,-0.0129 -0.028,-0.0252 -0.0259,-0.0268 -0.0569,-0.0485 -0.0828,-0.0753 -0.003,-0.003 0.006,0.007 0.01,0.008 0.003,0.001 -0.004,-0.005 -0.006,-0.007 -0.0523,-0.0559 -0.1058,-0.11049 -0.15912,-0.16535 -0.006,-0.006 -0.0117,-0.0119 -0.0173,-0.018 -0.001,-0.001 0.003,0.002 0.004,0.003 -0.009,-0.01 -0.017,-0.0191 -0.0255,-0.0286 -5.3e-4,-7.9e-4 -10e-4,-0.002 -0.002,-0.003 -0.0323,-0.0364 -0.0471,-0.0476 -0.0321,-0.0361 -0.0212,-0.0269 -0.0456,-0.0507 -0.0691,-0.0756 -0.009,-0.01 0.0153,0.0235 0.0275,0.0287 0.0153,0.007 -0.0347,-0.037 -0.0209,-0.025 -0.0294,-0.04 -0.0641,-0.0754 -0.0977,-0.11186 -0.006,-0.007 0.0124,0.0131 0.0188,0.0193 0.001,0.001 -0.002,-0.002 -0.002,-0.004 -0.044,-0.0524 -0.0739,-0.082 -0.0969,-0.10916 8e-4,7.9e-4 0.003,0.003 0.002,0.002 -0.0213,-0.03 -0.0388,-0.0512 -0.0608,-0.0803 -0.0147,-0.0265 -0.0763,-0.0942 -0.0572,-0.0706 0.008,0.0103 0.0305,0.0428 0.0247,0.031 -0.006,-0.0129 -0.0468,-0.0599 -0.0563,-0.0712 0.004,0.005 0.008,0.0103 0.0125,0.0145 0.003,0.003 -0.005,-0.007 -0.008,-0.0104 -0.015,-0.0178 -0.0298,-0.0359 -0.0454,-0.0531 -0.0104,-0.0114 -0.0218,-0.0218 -0.0326,-0.0328 -0.004,-0.004 0.008,0.008 0.0117,0.0114 -0.0116,-0.0117 -0.0232,-0.0235 -0.0348,-0.0352 0.0187,0.0156 0.0593,0.07 0.006,0.002 -0.003,-0.003 0.0105,0.0126 0.008,0.009 -0.0412,-0.0512 -0.0254,-0.0326 -0.0655,-0.0762 0.004,0.004 0.0165,0.0177 0.0125,0.0132 -0.1176,-0.12983 0.0631,0.0684 -0.0628,-0.0676 -0.005,-0.005 0.0103,0.0106 0.0155,0.0159 -0.51445,-0.58339 -1.33949,0.14415 -0.82504,0.72754 v 0 c 0.0111,0.012 0.0218,0.0242 0.0331,0.0359 0.007,0.007 -0.026,-0.029 -0.0195,-0.0218 0.10303,0.11545 -0.0583,-0.0665 0.0494,0.0554 -0.008,-0.009 -0.0302,-0.0386 -0.0227,-0.0289 0.0315,0.0408 0.0615,0.0817 0.10391,0.12317 -0.0264,-0.029 -0.005,-0.005 0.023,0.0238 0.003,0.003 -0.006,-0.006 -0.008,-0.009 -0.008,-0.01 -0.0155,-0.0199 -0.0236,-0.0295 -0.0148,-0.0174 0.10077,0.12796 0.0424,0.0539 -0.003,-0.004 -0.006,-0.008 -0.009,-0.0114 -0.003,-0.005 -0.0135,-0.019 -0.01,-0.0143 0.0143,0.0187 0.0278,0.038 0.0424,0.0566 0.007,0.008 0.0205,0.035 0.0209,0.0243 5.3e-4,-0.0113 -0.0137,-0.018 -0.0208,-0.0268 -0.004,-0.004 0.007,0.009 0.0102,0.0137 0.0301,0.0401 0.065,0.0871 0.10551,0.13761 0.005,0.006 0.10193,0.11773 0.0675,0.0729 0.0349,0.0442 0.0237,0.0311 0.0715,0.0841 0.005,0.005 -0.009,-0.011 -0.0141,-0.0166 -0.003,-0.003 0.006,0.006 0.008,0.01 0.009,0.0107 0.015,0.0185 0.0241,0.0299 0.0563,0.0689 0.0582,0.0655 0.0878,0.10239 0.034,0.0387 0.0729,0.0841 0.121,0.13479 0.0422,0.0429 0.0849,0.0866 0.12571,0.12971 0.0443,0.0489 0.0914,0.095 0.1414,0.13804 0.0517,0.0479 0.10528,0.0936 0.15864,0.13957 0.0419,0.0371 0.0803,0.0802 0.12401,0.11507 0.006,0.005 -0.01,-0.0108 -0.0149,-0.0162 0.0131,0.0135 0.0262,0.0271 0.0394,0.0406 0.002,0.002 0.006,0.007 0.005,0.005 -10e-4,-0.003 -0.004,-0.004 -0.006,-0.007 -0.006,-0.007 -0.009,-0.0189 -0.0174,-0.0217 -0.0257,-0.008 0.11617,0.10102 0.0513,0.0628 0.0274,0.0291 -0.0134,-0.0142 0.0676,0.0699 0.005,0.005 -0.01,-0.009 -0.0144,-0.0145 -0.014,-0.0164 -0.0338,-0.0705 -0.0409,-0.0501 -0.007,0.0206 0.0266,0.0347 0.0403,0.0517 0.006,0.007 0.0117,0.0133 0.0175,0.0199 -0.0745,-0.0973 0.0109,0.0146 0.0244,0.0301 0.0153,0.0176 0.0315,0.0345 0.049,0.05 0.0127,0.0112 -0.0235,-0.0245 -0.0346,-0.0373 -0.005,-0.005 -0.0167,-0.0227 -0.0125,-0.017 0.005,0.007 0.0109,0.0148 0.0164,0.0222 0.0725,0.093 0.0325,0.036 0.0952,0.12031 0.0409,0.0492 0.0796,0.10027 0.1243,0.14627 0.0516,0.056 0.10202,0.11315 0.15699,0.16596 0.0638,0.0623 0.1299,0.122 0.19731,0.18035 0.0569,0.0483 0.11231,0.0983 0.17063,0.14489 0.0546,0.0434 0.11026,0.0853 0.16547,0.12779 -0.002,-0.002 -0.01,-0.009 -0.007,-0.007 0.0415,0.0332 0.0816,0.0678 0.12369,0.10031 0.004,0.003 0.008,0.006 0.0125,0.009 0.0307,0.0231 0.0274,0.0209 0.0776,0.0557 0.004,0.003 0.0149,0.0112 0.0121,0.007 -0.003,-0.004 -0.0479,-0.0306 0.026,0.0202 -0.002,-0.002 -0.006,-0.007 -0.005,-0.005 0.0226,0.0198 0.0444,0.0407 0.0675,0.06 0.0541,0.0506 0.1106,0.0997 0.17227,0.14145 0.0324,0.0216 0.007,0.004 0.0752,0.0537 0.0407,0.0278 0.0852,0.0487 0.12678,0.0748 0.0704,0.039 0.14153,0.0767 0.21543,0.10879 0.0298,0.0126 0.0737,0.0337 0.11391,0.05 0.0708,0.0331 0.14184,0.0665 0.21579,0.0921 0.0592,0.0225 0.11925,0.0424 0.17703,0.0682 0.067,0.0283 0.13575,0.05 0.20338,0.0761 0.0537,0.021 0.10608,0.0451 0.15919,0.0674 0.0498,0.0211 0.0988,0.0439 0.14756,0.0677 0.0556,0.0265 0.10988,0.0557 0.16732,0.078 -0.0992,-0.0468 0.16347,0.0747 0.0473,0.0203 -0.002,-7.9e-4 0.004,0.002 0.006,0.003 0.0427,0.0216 0.0859,0.0446 0.13115,0.0606 0.004,0.001 -0.01,-0.003 -0.0111,-0.006 0.0551,0.0281 0.11116,0.0554 0.16702,0.081 0.0587,0.0272 0.11746,0.0532 0.17853,0.0747 0.0494,0.017 0.0994,0.0339 0.14906,0.0488 0.0547,0.0195 0.10931,0.0399 0.16372,0.061 0.0847,0.03 0.16876,0.0629 0.25757,0.0791 0.008,1e-5 0.0191,0.004 0.0261,0.006 0.0396,0.0112 0.0788,0.0239 0.11913,0.0324 0.0667,0.0147 0.13415,0.0257 0.20151,0.0371 0.0629,0.007 0.12589,0.013 0.18904,0.0175 0.0676,0.008 0.13515,0.0159 0.2031,0.0203 0.0787,0.006 0.1575,0.008 0.23648,0.007 0.0683,0 0.13667,0 0.205,0 0.0684,0 0.13678,0 0.20517,2e-5 0.0619,3e-5 0.12388,8e-5 0.18583,9e-5 0.059,-1e-5 0.11797,2e-5 0.17694,-0.001 0.0819,-0.002 0.16382,-0.005 0.2454,-0.0129 0.008,-7.9e-4 0.0153,-2.6e-4 0.0226,-0.002 0.004,-0.001 -0.0161,-2.6e-4 -0.0121,-5.3e-4 0.0461,-0.001 0.0924,8e-4 0.13853,-0.001 0.0856,-0.002 0.17123,-0.005 0.25609,-0.0174 0.0584,-0.008 0.11763,-0.009 0.17633,-0.0166 0.0203,-0.004 -1e-5,-2.7e-4 0.0483,-0.003 0.0597,-0.004 0.11924,-0.01 0.17816,-0.0202 0.0544,-0.009 0.10884,-0.0184 0.16371,-0.0246 0.0657,-0.0108 0.1304,-0.0254 0.19566,-0.0382 0.059,-0.0137 0.1201,-0.0179 0.17861,-0.0343 0.0609,-0.0165 0.12391,-0.0247 0.18473,-0.0415 0.0836,-0.0219 0.16708,-0.0442 0.25017,-0.068 0.0776,-0.0246 0.15551,-0.0482 0.23429,-0.0689 0.0912,-0.0255 0.1827,-0.0515 0.2701,-0.0883 0.062,-0.0246 0.12424,-0.047 0.18765,-0.068 0.0814,-0.0316 0.16183,-0.0653 0.24182,-0.1003 0.0141,-0.0109 0.001,-0.002 0.0418,-0.016 0.0496,-0.0177 0.1,-0.0332 0.14807,-0.0549 -0.007,8e-4 -0.005,8e-4 0.0113,-0.005 0.0398,-0.0144 0.0793,-0.0292 0.11975,-0.0416 0.0674,-0.0244 0.13566,-0.0462 0.20291,-0.0709 0.0849,-0.034 0.17432,-0.0557 0.25826,-0.0923 0.0881,-0.0373 0.17723,-0.0723 0.26322,-0.11435 0.0641,-0.0295 0.12924,-0.0573 0.1897,-0.0938 0.0541,-0.0297 0.10973,-0.0568 0.16287,-0.0884 -0.004,0.002 -0.0163,0.009 -0.0123,0.007 0.0546,-0.0323 0.10914,-0.0647 0.16034,-0.10226 0.0388,-0.0302 0.0753,-0.0589 0.11122,-0.0918 0.0125,-0.0114 0.0248,-0.0229 0.0371,-0.0345 0.002,-0.002 0.008,-0.008 0.006,-0.006 -0.007,0.005 -0.0135,0.011 -0.0202,0.0165 0.60737,-0.4859 -0.0798,-1.34486 -0.68716,-0.85896 z" />
    <path
       style="fill:#000000;stroke-width:0.264583"
       id="path19"
       d="m 116.79855,151.94793 c 0,-0.15458 0,-0.30915 0,-0.46372 0.0115,-0.0896 0.0197,-0.10746 0.0447,-0.19317 0.0375,-0.14825 0.0812,-0.29495 0.13415,-0.43844 0.0487,-0.12351 0.10456,-0.2426 0.16352,-0.36128 0.049,-0.0792 0.1243,-0.18293 0.18697,-0.27845 0.079,-0.10815 0.16681,-0.20994 0.24404,-0.32039 0.0445,-0.0644 0.10243,-0.11515 0.15232,-0.17523 0.12345,-0.14865 0.0315,-0.0502 0.10788,-0.13009 0.10052,-0.11835 0.20918,-0.22858 0.3191,-0.33787 0.10879,-0.12357 0.23538,-0.22958 0.35261,-0.34501 0.0873,-0.0973 0.18944,-0.17782 0.2923,-0.25735 0.0887,-0.055 0.17476,-0.11439 0.26087,-0.17375 0.0843,-0.0465 0.15804,-0.10802 0.2389,-0.15967 0.0426,-0.0201 0.11497,-0.05 0.17055,-0.0753 0.10196,-0.0379 0.18974,-0.0859 0.28497,-0.14129 0.0111,-0.007 0.0222,-0.0144 0.0332,-0.0215 0.65255,-0.4233 0.0539,-1.34614 -0.59863,-0.92285 v 0 c -0.0116,0.007 -0.0231,0.015 -0.0347,0.0225 0.0127,-0.006 0.0252,-0.0119 0.038,-0.0174 0.005,-0.002 -0.01,0.005 -0.015,0.007 -0.009,0.004 -0.0909,0.037 -0.11068,0.0496 -0.005,0.003 0.0239,-0.008 0.018,-0.006 -0.0236,0.01 -0.0476,0.0189 -0.0715,0.0284 -0.10789,0.0493 -0.22139,0.094 -0.32312,0.16002 -0.0983,0.0663 -0.15701,0.11347 -0.25504,0.1706 -0.10243,0.0708 -0.20614,0.13898 -0.30908,0.209 -0.13874,0.10742 -0.27508,0.21815 -0.39467,0.34722 -0.11611,0.1175 -0.24625,0.22123 -0.35423,0.34662 -0.12367,0.12418 -0.24722,0.24822 -0.36087,0.38194 -0.11896,0.13583 -0.23734,0.27264 -0.34724,0.41584 -0.0799,0.12004 -0.18475,0.22144 -0.26033,0.34473 -0.0832,0.13013 -0.1798,0.25247 -0.25062,0.39011 -0.0763,0.15494 -0.14861,0.31108 -0.21107,0.47232 -0.0605,0.16707 -0.11403,0.33667 -0.15724,0.50907 -0.047,0.16325 -0.0849,0.32857 -0.0882,0.49943 0,0.15457 0,0.30914 0,0.46372 0,0.77781 1.1,0.77781 1.1,0 z" />
    <path
       style="fill:#000000;stroke-width:0.264583"
       d="m 104.4708,147.97442 c -0.18312,0.0848 -0.35302,0.19802 -0.50169,0.33446 -0.16391,0.15043 -0.30191,0.32902 -0.40613,0.52558 -0.0987,0.26543 -0.12373,0.5578 -0.0717,0.83615 0.0516,0.27595 0.18451,0.54438 0.40613,0.71669 0.14803,0.11509 0.32928,0.1828 0.51436,0.21288 0.18507,0.0301 0.37445,0.0239 0.56069,0.002 0.3573,-0.0418 0.7052,-0.14029 1.05116,-0.2389 3.33401,-0.9503 6.65512,-1.94584 9.96211,-2.98625"
       id="path20"
       inkscape:path-effect="#path-effect20"
       inkscape:original-d="m 104.4708,147.97442 c -0.16723,0.14334 -0.33446,0.2389 -0.50169,0.33446 -0.16723,0.0956 -0.5415,0.69281 -0.40613,0.52558 -0.13537,0.14334 -0.0398,0.55743 -0.0717,0.83615 -0.0318,0.27871 0.25483,0.48576 0.40613,0.71669 0.1513,0.23094 0.72466,0.12742 1.07505,0.21502 0.35038,0.0876 0.7167,-0.15927 1.05116,-0.2389 0.33446,-0.0796 6.62548,-1.99084 9.96211,-2.98625"
       transform="matrix(1.0936978,0,0,1.399692,-10.509758,-60.02963)" />
    <path
       style="fill:#fbf3e8;fill-opacity:1;stroke-width:0.264583"
       d="m 104.02558,147.35549 c -0.0619,0.19849 -0.10711,0.40214 -0.13515,0.60814 -0.0251,0.18463 -0.0364,0.37114 -0.0338,0.55746 l 0.11825,0.52367 0.33785,0.30407 c 0.16087,0.0343 0.32541,0.0513 0.48989,0.0507 0.16665,-5.9e-4 0.33323,-0.0193 0.49587,-0.0556 l 10.66933,-2.68342"
       id="path21"
       inkscape:path-effect="#path-effect21"
       inkscape:original-d="m 104.02558,147.35549 c -0.0451,0.20271 -0.0901,0.40543 -0.13515,0.60814 -0.045,0.20271 -0.0394,0.73765 -0.0338,0.55746 0.0113,0.1633 0.1464,0.69823 0.11825,0.52367 0.0113,0.15767 0.45047,0.40543 0.33785,0.30407 0.0957,0.0845 0.32097,0.0282 0.48989,0.0507 0.16893,0.0225 0.65916,-0.0781 0.49587,-0.0556 0.15732,-0.0345 7.1109,-1.79293 10.66933,-2.68342"
       transform="matrix(1.0383935,0,0,1.0264907,-4.167701,-4.3023918)" />
    <path
       style="fill:#000000;stroke-width:0.215108"
       id="path22"
       d="m 105.53758,143.36404 c -0.0494,-0.0443 -0.11021,-0.0887 -0.16012,-0.12599 -0.0324,-0.0331 -0.0748,-0.056 -0.10883,-0.0868 -0.0444,-0.0342 -0.0227,-0.0167 -0.0517,-0.045 -0.0185,-0.0179 -0.0261,-0.0206 -0.016,-0.0166 -0.0781,-0.0874 -0.0104,-0.007 -0.0114,-0.0107 -0.0186,-0.0321 -0.0495,-0.0609 -0.075,-0.0884 -0.033,-0.0326 -0.025,-0.0271 -0.0568,-0.0688 -0.0383,-0.0489 -0.002,-0.002 -0.0492,-0.0679 -0.0162,-0.0227 -0.012,-0.0127 -0.0164,-0.0235 -0.0302,-0.042 -0.0603,-0.0837 -0.0897,-0.12622 -0.033,-0.0444 -0.0684,-0.087 -0.10161,-0.13122 -0.0258,-0.0311 -0.038,-0.0523 -0.0581,-0.0845 -0.0431,-0.0602 -0.0533,-0.0794 -0.10183,-0.14368 0.005,0.008 0.0115,0.0164 0.0184,0.0236 0.004,0.004 -0.005,-0.009 -0.0104,-0.0141 -0.03,-0.0417 -0.0493,-0.0658 -0.0826,-0.10451 -0.0603,-0.06 -0.0535,-0.0596 -0.12284,-0.11694 0.005,0.005 0.0264,0.0234 0.0203,0.0171 -0.0104,-0.0104 -0.0211,-0.019 -0.0316,-0.0285 0.0304,0.0335 0.0147,0.0123 0.0114,0.009 -0.0385,-0.0374 -0.0566,-0.0522 -0.0357,-0.0351 -0.0974,-0.0884 -0.0338,-0.0302 -0.0263,-0.0245 0.002,7.9e-4 -0.002,-0.002 -0.003,-0.004 -0.0104,-0.0104 -0.0198,-0.0201 -0.0294,-0.0306 -0.002,-0.002 0.005,0.005 0.005,0.007 -0.0105,-0.0109 -0.0199,-0.0218 -0.03,-0.0327 -0.43208,-0.45884 -1.12834,0.11067 -0.69625,0.56951 v 0 c -8.4e-4,-0.002 -0.002,-0.002 -0.002,-0.004 0.036,0.0409 0.0727,0.0805 0.11332,0.1177 0.004,0.004 -0.006,-0.008 -0.0122,-0.0122 0.0245,0.0238 0.052,0.0526 0.10616,0.10094 -0.005,-0.005 -0.0216,-0.0219 -0.016,-0.0166 0.0106,0.0105 0.021,0.0215 0.0321,0.0316 0.005,0.005 -0.0235,-0.0242 -0.0177,-0.018 0.0369,0.0385 0.0338,0.0357 0.0106,0.009 0.005,0.008 0.0133,0.0179 0.0218,0.025 0.005,0.005 -0.0199,-0.0267 -0.0154,-0.0197 0.0136,0.0217 0.0303,0.0369 0.002,4.3e-4 -0.0175,-0.023 0.1296,0.19056 0.0489,0.0711 -0.005,-0.008 -0.02,-0.0302 -0.0154,-0.0224 0.005,0.009 0.0116,0.018 0.0182,0.0271 0.002,0.002 -0.005,-0.008 -0.003,-0.007 0.012,0.0182 0.0302,0.0487 0.0455,0.0678 0.002,0.002 -0.002,-0.005 -0.004,-0.008 0.0309,0.0491 0.0621,0.0983 0.099,0.14394 0.0269,0.0359 0.056,0.0729 0.0837,0.10624 0.0251,0.0361 0.0529,0.0755 0.0775,0.10814 0.0348,0.0515 0.0607,0.0877 0.0996,0.13942 0.0371,0.0486 0.0742,0.0976 0.11829,0.14102 -0.0112,-0.0258 0.0635,0.0848 0.0738,0.0857 0.0478,0.0507 0.0972,0.10199 0.15381,0.14395 0.0406,0.0338 0.0844,0.0634 0.12354,0.0989 0.023,0.0179 0.047,0.0344 0.0703,0.0521 0.015,0.0114 0.0285,0.0244 0.0443,0.0353 0.002,7.9e-4 -0.002,-0.003 -0.004,-0.005 0.46318,0.43169 1.11823,-0.17881 0.65504,-0.61048 z" />
    <path
       style="fill:#000000;stroke-width:0.264583"
       id="path23"
       d="m 104.75939,142.46928 c -0.002,0.0252 -0.0371,0.0713 -7.9e-4,0.0161 -0.009,-0.0129 -0.003,0.008 -0.002,0.007 0.002,-0.002 0.004,-0.004 0.006,-0.006 -0.003,0.004 -0.0123,0.008 -0.009,0.0116 8e-4,7.9e-4 0.0149,-0.0136 0.0336,-0.0285 0.006,-0.005 0.0491,-0.0351 0.0513,-0.0367 0.0181,-0.007 -0.0463,0.0184 -0.0113,0.009 0.009,-0.002 0.0159,-0.008 0.0238,-0.0128 0.0308,-0.0172 0.06,-0.0338 0.0919,-0.0484 0.099,-0.0472 0.19509,-0.0995 0.29084,-0.15277 0.0988,-0.0568 0.18916,-0.12677 0.27811,-0.19765 0.0482,-0.0351 0.0963,-0.0704 0.14446,-0.1055 0.0784,-0.0626 0.13567,-0.11043 0.21091,-0.19546 -5.3e-4,8e-4 -0.002,0.003 -0.001,0.003 0.0337,-0.0347 0.0763,-0.0855 0.1022,-0.11696 0.0472,-0.0412 0.0769,-0.0985 0.12026,-0.14279 -0.006,0.007 -0.0255,0.0283 -0.0188,0.0215 0.0476,-0.0493 0.0943,-0.0996 0.13767,-0.15278 0.035,-0.0415 0.0622,-0.0773 0.0925,-0.11482 0.004,-0.005 -0.008,0.0102 -0.0116,0.0152 0.0101,-0.012 0.0201,-0.024 0.0302,-0.036 0.49236,-0.60215 -0.35921,-1.29844 -0.85157,-0.69629 v 0 c 0.001,-0.001 0.002,-0.002 0.004,-0.004 -0.0453,0.0529 -0.0764,0.0929 -0.11784,0.14283 -0.001,0.001 -0.0367,0.0342 -0.0555,0.0618 -0.005,0.008 0.0138,-0.013 0.0207,-0.0195 -0.0194,0.0195 -0.0389,0.0389 -0.0583,0.0584 -0.0424,0.0494 -0.0641,0.0831 -0.10624,0.12702 -0.0693,0.0779 -0.039,0.0526 -0.11237,0.1271 -0.004,0.005 -0.009,0.009 -0.0122,0.014 -7.9e-4,0.001 0.003,-0.002 0.004,-0.003 0.0121,-0.009 0.0241,-0.0185 0.0362,-0.0278 -0.005,0.004 -0.0675,0.0498 -0.0794,0.0626 -0.005,0.006 0.0124,-0.009 0.0186,-0.0134 -0.0615,0.0448 -0.12294,0.0895 -0.18364,0.13544 -0.0414,0.0334 -0.0834,0.0662 -0.12728,0.0962 -0.0757,0.0424 -0.15146,0.0842 -0.23002,0.12123 -0.0991,0.0483 -0.19742,0.0999 -0.28778,0.16331 -0.0863,0.0647 -0.17269,0.12985 -0.24528,0.21047 -0.0918,0.10722 -0.17241,0.22442 -0.219,0.359 -0.24597,0.7379 0.79758,1.08575 1.04355,0.34785 z" />
    <circle
       id="path24"
       style="fill:#000000;stroke:#000000;stroke-width:0.264583"
       cx="105.92809"
       cy="140.80742"
       r="0.00087508926" />
    <circle
       id="path25"
       style="fill:#000000;stroke:#000000;stroke-width:0.264583"
       cx="105.88294"
       cy="140.39453"
       r="0.0006057304" />
    <path
       style="fill:#000000;stroke-width:0.264583"
       id="path26"
       d="m 105.68102,140.2626 c 0.0541,-0.0599 0.008,-0.0126 -0.003,-0.002 -0.002,10e-4 0.003,-0.003 0.004,-0.005 -0.014,0.0121 -0.0113,0.01 -0.0337,0.0308 -0.006,0.006 0.0284,-0.0188 0.0196,-0.0179 -0.002,2.1e-4 -0.0461,0.0395 -0.0508,0.0436 -0.0243,0.0225 -0.0423,0.0387 -0.0676,0.0607 -0.0152,0.0132 -0.009,0.009 -0.0172,0.0146 -0.0347,0.0291 -0.0625,0.0532 -0.0926,0.0791 -0.0318,0.0255 -0.0588,0.0563 -0.0891,0.0836 -0.0285,0.0265 -0.0566,0.0534 -0.0855,0.0795 -0.0336,0.0304 -0.0662,0.062 -0.1,0.0922 7.9e-4,-8e-4 0.003,-0.003 0.002,-0.003 -0.0222,0.0157 -0.0417,0.035 -0.0631,0.0518 -0.002,0.001 0.006,-0.005 0.004,-0.004 -0.005,0.003 -0.009,0.007 -0.0141,0.0103 -0.0476,0.0312 -0.0925,0.0659 -0.13665,0.10161 -0.0353,0.0284 -0.0723,0.0545 -0.10808,0.0824 -0.0461,0.0334 -0.0861,0.0741 -0.13008,0.11004 -0.0445,0.0372 -0.0861,0.0775 -0.12898,0.11646 -0.0278,0.0254 -0.0571,0.0491 -0.0864,0.0727 -0.0392,0.0344 -0.08,0.0669 -0.11958,0.10087 -0.0356,0.0281 -0.067,0.0609 -0.10073,0.091 -0.0294,0.0254 -0.0578,0.0575 -0.0837,0.0835 6e-5,-2.7e-4 2.6e-4,-0.001 1.7e-4,-8e-4 -0.0262,0.0246 -0.0521,0.0493 -0.0791,0.0731 -0.0288,0.0255 0.003,-0.003 -0.045,0.0418 -0.004,0.004 0.017,-0.0157 0.0125,-0.0121 -0.007,0.006 -0.024,0.01 -0.0207,0.0185 0.003,0.009 0.0296,-0.0156 0.0208,-0.0181 -0.009,-0.003 -0.0147,0.0119 -0.0221,0.0178 -0.0262,0.0221 -0.0283,0.0233 -0.0582,0.0524 -0.008,0.008 -0.0339,0.0327 -0.0245,0.0254 0.0109,-0.008 0.04,-0.0382 0.0295,-0.0293 -0.0136,0.0116 -0.0258,0.0247 -0.0387,0.037 -0.0442,0.0441 -0.074,0.0828 -0.093,0.10658 0.0536,-0.0639 0.002,-0.003 0.003,-0.004 0.007,-0.007 0.0137,-0.0158 0.0208,-0.0235 0.003,-0.003 0.0107,-0.011 0.008,-0.008 -0.0468,0.0484 -0.0198,0.0184 -0.074,0.0852 0.0186,-0.025 0.0124,-0.0172 0.0493,-0.0571 0.004,-0.005 0.0188,-0.0178 0.0141,-0.0133 -0.1022,0.0966 0.038,-0.0381 -0.0514,0.0491 0.003,-0.003 0.007,-0.007 0.01,-0.01 0.0116,-0.01 0.0238,-0.0192 0.0348,-0.0297 0.007,-0.006 -0.015,0.0112 -0.022,0.0174 -0.0189,0.0169 -0.0368,0.0348 -0.0555,0.0519 -0.0144,0.0131 0.0563,-0.0535 0.0424,-0.04 -0.0193,0.0188 -0.039,0.0371 -0.0585,0.0556 10e-4,-0.002 0.003,-0.003 0.004,-0.005 0.0117,-0.0111 0.0243,-0.0212 0.0354,-0.033 0.007,-0.008 -0.017,0.0136 -0.0245,0.0214 -0.007,0.007 0.0151,-0.013 0.0226,-0.0195 -0.61016,0.48239 0.0721,1.34529 0.68221,0.86289 v 0 c 0.0387,-0.0324 0.0327,-0.0246 0.0841,-0.0766 -0.0158,0.0145 -0.0635,0.0577 -0.0473,0.0436 0.0185,-0.0161 0.0365,-0.0328 0.0543,-0.0497 0.0147,-0.014 -0.0299,0.0276 -0.0452,0.0411 -0.003,0.003 -0.0122,0.01 -0.009,0.007 0.065,-0.0546 0.0301,-0.0224 0.0737,-0.064 -0.0319,0.0297 0.009,-0.008 0.0117,-0.0111 0.005,-0.005 -0.0214,0.0194 -0.0161,0.0145 0.0351,-0.0325 0.0697,-0.0658 0.0974,-0.10506 -0.0114,0.0135 -0.0223,0.0274 -0.0341,0.0406 -0.006,0.006 -0.024,0.0234 -0.0178,0.0177 0.0389,-0.0354 0.0501,-0.0537 0.0787,-0.0865 -0.0389,0.0469 0.0461,-0.0559 -0.005,0.005 -0.002,0.002 0.004,-0.005 0.006,-0.007 1e-4,-1.1e-4 -2.5e-4,1.5e-4 -2.6e-4,2.3e-4 -0.004,0.004 -0.007,0.007 -0.011,0.0108 0.0717,-0.0707 -0.11365,0.10577 0.0427,-0.0419 0.0125,-0.0118 -0.035,0.0334 -0.0247,0.0223 0.0144,-0.0148 -10e-4,0.001 0.0454,-0.0374 0.0133,-0.011 0.0257,-0.0232 0.0384,-0.0349 0.003,-0.002 -0.0104,0.009 -0.008,0.007 0.004,-0.004 0.009,-0.008 0.0133,-0.0118 0.0407,-0.036 0.0794,-0.073 0.11888,-0.10944 0.032,-0.0319 0.0219,-0.0212 0.0442,-0.0449 0.003,-0.003 0.005,-0.005 0.008,-0.008 2.7e-4,-2.6e-4 0.001,-0.002 0.001,-0.001 -0.002,0.002 -0.009,0.008 -0.007,0.006 0.005,-0.005 0.0103,-0.009 0.0154,-0.014 0.0239,-0.0223 0.0471,-0.0454 0.0726,-0.0659 0.0308,-0.0269 0.0636,-0.0515 0.0937,-0.0793 0.0466,-0.0379 0.0934,-0.0758 0.13749,-0.1167 0.0301,-0.0277 0.0599,-0.0558 0.0907,-0.0829 0.0436,-0.0367 0.0671,-0.0606 0.10314,-0.0883 0.0401,-0.0318 0.0825,-0.0604 0.12173,-0.0932 0.006,-0.005 0.0125,-0.01 0.0187,-0.0151 0.001,-7.9e-4 0.002,-0.002 0.003,-0.003 1.8e-4,-2.6e-4 -10e-4,2.7e-4 -10e-4,7e-5 0.0253,-0.0178 0.0514,-0.0344 0.0762,-0.0529 0.0524,-0.0386 0.10237,-0.0802 0.15251,-0.12171 0.0368,-0.033 0.0727,-0.067 0.1091,-0.10047 0.0335,-0.0308 0.0668,-0.0618 0.1,-0.093 0.0269,-0.0258 0.0461,-0.0459 0.0604,-0.0573 -0.0143,0.0108 -0.002,0.001 0.0223,-0.0189 0.009,-0.008 0.019,-0.0159 0.028,-0.0244 0.002,-0.002 -0.008,0.006 -0.006,0.005 0.006,-0.005 0.0124,-0.01 0.0186,-0.0151 0.0371,-0.0309 0.0733,-0.0629 0.10906,-0.0953 7.9e-4,-7.9e-4 -0.002,0.001 -0.003,0.002 0.0329,-0.0285 0.0614,-0.0531 0.0818,-0.0713 0.0425,-0.0392 0.0845,-0.0792 0.12154,-0.12384 0.4859,-0.60738 -0.37306,-1.29454 -0.85896,-0.68717 z" />
    <path
       style="fill:#000000;stroke-width:0.264583"
       id="path29"
       d="m 103.71462,145.50143 c -0.0589,-0.0708 -0.11569,-0.14204 -0.17304,-0.21292 -0.0875,-0.10219 -0.17103,-0.20764 -0.25808,-0.31016 -0.0617,-0.0752 -0.12506,-0.14893 -0.18788,-0.22317 -0.0476,-0.0629 -0.0944,-0.12606 -0.14531,-0.18651 -0.0405,-0.0545 -0.0853,-0.10562 -0.12849,-0.15798 -0.0391,-0.045 -0.0748,-0.0924 -0.11326,-0.13814 -0.0207,-0.0315 -0.0516,-0.0726 -0.0783,-0.10914 -0.006,-0.008 0.0123,0.0161 0.0185,0.0242 -0.0585,-0.0846 -0.11902,-0.16738 -0.18511,-0.24616 -0.0428,-0.053 -0.0578,-0.0763 -0.0823,-0.10978 -0.0389,-0.0493 -0.0738,-0.088 -0.10572,-0.12791 0.004,0.006 0.0174,0.0222 0.0133,0.0165 -0.011,-0.0155 -0.0228,-0.0303 -0.034,-0.0457 -0.001,-0.001 0.002,0.003 0.004,0.004 -0.005,-0.007 -0.01,-0.0144 -0.0151,-0.0211 -0.0647,-0.0812 -0.0363,-0.0403 -0.0541,-0.0659 0.008,0.01 0.0159,0.0198 0.0238,0.0298 -0.43439,-0.64522 -1.34686,-0.0309 -0.91247,0.61432 v 0 c 0.0155,0.0211 0.0309,0.0422 0.0464,0.0633 0.08,0.0938 -0.0301,-0.0456 0.0112,0.0117 0.009,0.0126 0.018,0.0255 0.0274,0.0379 0.003,0.004 -0.005,-0.008 -0.007,-0.0114 0.013,0.0181 0.026,0.0363 0.039,0.0544 0.0383,0.0477 0.046,0.0555 0.083,0.0986 0.0452,0.0612 0.0695,0.096 0.13176,0.17123 0.0245,0.0166 0.0704,0.0977 0.0933,0.12494 0.003,0.003 -0.004,-0.008 -0.007,-0.0116 0.0457,0.0672 0.0832,0.12325 0.15108,0.20935 0.0399,0.0461 0.0751,0.0961 0.11606,0.14142 0.0286,0.0332 0.0757,0.0904 0.12322,0.15178 0.009,0.0106 0.0173,0.0219 0.0269,0.0319 0.002,0.002 -0.006,-0.0106 -0.004,-0.008 0.0418,0.0547 0.0783,0.11361 0.1244,0.16505 0.0647,0.0763 0.12985,0.15212 0.19325,0.22947 0.084,0.095 0.15925,0.19775 0.24341,0.29274 0.0569,0.0645 0.10587,0.13578 0.16284,0.20035 0.48589,0.60737 1.34485,-0.0798 0.85895,-0.68717 z" />
    <path
       style="fill:#000000;stroke-width:0.264583"
       id="path30"
       d="m 100.71145,146.68281 c -0.0609,-0.089 -0.12231,-0.17822 -0.1824,-0.26799 -0.0775,-0.11493 -0.15965,-0.22631 -0.23614,-0.34197 -0.0759,-0.11613 -0.15003,-0.23332 -0.22762,-0.34834 -0.0404,-0.0511 -0.0718,-0.10818 -0.106877,-0.1628 -0.04642,-0.0723 -0.02561,-0.0345 -0.04419,-0.069 -0.04462,-0.062 -0.07889,-0.13044 -0.115414,-0.19735 -0.03575,-0.0619 -0.07487,-0.122 -0.108617,-0.18505 -0.04045,-0.0587 -0.07138,-0.12149 -0.106923,-0.18309 -0.0064,-0.0149 -0.0065,-0.0156 -0.02096,-0.0386 -0.0098,-0.0156 -0.04007,-0.062 -0.05858,-0.0874 -0.0205,-0.0281 -0.03061,-0.0403 -0.01579,-0.0221 -0.427286,-0.64994 -1.346446,-0.0457 -0.91916,0.60427 v 0 c 0.01058,0.0155 0.02114,0.031 0.03171,0.0464 0.0021,0.003 0.0042,0.005 0.0062,0.008 0.0053,0.007 0.01844,0.0308 0.01574,0.0222 -0.0037,-0.0118 -0.01252,-0.0214 -0.01887,-0.0321 -0.0024,-0.004 0.0044,0.008 0.0066,0.0115 0.0076,0.014 0.01519,0.0279 0.02278,0.0419 0.03367,0.0558 0.06145,0.11495 0.09777,0.16925 0.0024,0.004 -0.0037,-0.008 -0.0055,-0.0121 0.03436,0.0622 0.07099,0.12358 0.108035,0.18399 0.04402,0.0806 0.08619,0.16295 0.138911,0.23827 0.05817,0.0943 0.117118,0.1885 0.181174,0.27899 0.07572,0.11223 0.14788,0.22672 0.222046,0.33999 0.07768,0.11743 0.160737,0.23078 0.239636,0.34723 0.08148,0.12159 0.162999,0.24331 0.251317,0.36008 0.497952,0.59754 1.342992,-0.10667 0.845042,-0.7042 z" />
    <path
       style="fill:#000000;stroke-width:0.264583"
       id="path31"
       d="m 97.3487,147.74777 c -0.0344,-0.0771 -0.06571,-0.15552 -0.09819,-0.23346 -0.04193,-0.0985 -0.07735,-0.19936 -0.119279,-0.29792 -0.0431,-0.10075 -0.09491,-0.19776 -0.136123,-0.2993 -0.02992,-0.0683 -0.06246,-0.13529 -0.09211,-0.20372 -0.02851,-0.0693 -0.05798,-0.13828 -0.08713,-0.20735 -0.03659,-0.0774 -0.06652,-0.15696 -0.106918,-0.23276 -0.02561,-0.0509 -0.02522,-0.0595 -0.06209,-0.13017 -0.02872,-0.0642 -0.06784,-0.12223 -0.106338,-0.18075 0.004,0.006 0.0081,0.0117 0.01212,0.0176 -0.385082,-0.67581 -1.340813,-0.13122 -0.955727,0.54459 v 0 c 0.01172,0.0194 0.02347,0.0387 0.03518,0.0581 0.0072,0.0104 0.01344,0.0215 0.02154,0.0312 0.0092,0.0111 -0.02704,-0.0509 -0.02045,-0.0381 0.01492,0.029 0.02922,0.0581 0.0442,0.0871 -0.0026,-0.007 -0.01093,-0.0291 -0.0079,-0.0219 0.02162,0.0512 0.0431,0.1021 0.06945,0.15106 0.0032,0.006 0.0065,0.012 0.0097,0.018 -0.0026,-0.007 -0.0118,-0.0266 -0.0078,-0.0205 0.0045,0.007 0.0062,0.0151 0.0092,0.0226 0.01654,0.0417 0.0315,0.0848 0.05345,0.12407 0.03109,0.0722 0.06162,0.14473 0.09148,0.21747 0.0275,0.0626 0.05627,0.12468 0.08488,0.18679 0.04372,0.10354 0.09292,0.20458 0.139337,0.30692 0.04091,0.096 0.07426,0.19474 0.116091,0.29035 0.04219,0.10109 0.08226,0.20311 0.129562,0.30197 0.34785,0.6957 1.331719,0.20376 0.983869,-0.49194 z" />
  </g>
</svg>
